<?xml version="1.0" standalone="no"?>
<!DOCTYPE svg PUBLIC "-//W3C//DTD SVG 1.1//EN" "http://www.w3.org/Graphics/SVG/1.1/DTD/svg11.dtd" >
<svg xmlns="http://www.w3.org/2000/svg" xmlns:xlink="http://www.w3.org/1999/xlink" version="1.1">
<metadata></metadata>
<defs>
<font id="connections_mediumregular" horiz-adv-x="1165" >
<font-face units-per-em="2048" ascent="1536" descent="-512" />
<missing-glyph horiz-adv-x="579" />
<glyph unicode="&#xfb01;" horiz-adv-x="1200" d="M53 844v125q50 16 146 39v112q0 196 99 288.5t316 92.5q195 -4 349 -43q-26 -154 -31 -170q-192 29 -281 29q-124 0 -177.5 -45t-53.5 -164v-104h622l2 -1004h-229l-2 844h-393q0 -140 -1 -422.5t-1 -421.5h-223l2 844h-144z" />
<glyph unicode="&#xfb02;" horiz-adv-x="1222" d="M53 844v125q22 6 70.5 18.5t73.5 20.5v96q0 200 107.5 290.5t318.5 90.5q154 -4 270 -25l174 23q0 -247 -1 -742t-1 -741h-227q0 104 1 642t1 644q-140 17 -189 17q-124 0 -177.5 -45t-53.5 -164v-93h278v-157h-278q0 -140 -1 -422.5t-1 -421.5h-223v844h-142z" />
<glyph unicode="&#xfb03;" horiz-adv-x="1828" d="M55 844v125q23 7 70.5 19.5t71.5 19.5v96q0 180 108 274.5t326 94.5q148 0 287 -41q45 45 132.5 67.5t188.5 22.5q195 0 352 -43l-32 -168q-152 28 -281 28q-121 0 -177.5 -42.5t-56.5 -163.5v-129h627v-1004h-229v844h-398q0 -68 1.5 -422t1.5 -422h-226v844h-401 q0 -140 -1 -422.5t-1 -421.5h-223v844h-140zM420 1004h403v163q0 50 17 103q-93 22 -176 22q-136 0 -190 -50t-54 -169v-69z" />
<glyph unicode="&#xfb04;" horiz-adv-x="1853" d="M55 844v125q25 8 73.5 20.5t70.5 18.5v90q0 179 104 277t322 98q149 0 293 -41q44 43 128.5 66.5t174.5 23.5q143 0 329 -25l146 25v-1522h-228q0 220 -1 661t-1 662q-132 16 -186 16q-126 0 -179.5 -44t-53.5 -162q0 -23 -1.5 -67t-1.5 -65h281v-157h-281 q0 -140 1.5 -422t1.5 -422h-226v844h-401v-844h-223v844h-142zM420 1001h403v74q0 123 13 172l4 23q-93 22 -176 22q-136 0 -190 -50t-54 -169v-72z" />
<glyph horiz-adv-x="0" />
<glyph horiz-adv-x="682" />
<glyph unicode=" "  horiz-adv-x="579" />
<glyph unicode="&#x09;" horiz-adv-x="579" />
<glyph unicode="&#xa0;" horiz-adv-x="579" />
<glyph unicode="!" horiz-adv-x="520" d="M127 104q0 53 35.5 88t95.5 35t96.5 -35.5t36.5 -87.5q0 -53 -37 -88.5t-96 -35.5q-60 0 -95.5 35t-35.5 89zM150 1434h219l-4 -576l-23 -485h-162l-24 485z" />
<glyph unicode="&#x22;" horiz-adv-x="651" d="M102 1407h193l-35 -457h-125zM360 1407h193l-31 -457h-129z" />
<glyph unicode="#" horiz-adv-x="1134" d="M102 401l15 117h164l69 305h-166l15 115h178l82 356h131l-80 -356h266l82 356h131l-82 -356h148l-15 -115h-159l-70 -305h160l-13 -117h-172l-88 -401h-133l88 401h-264l-92 -401h-131l90 401h-154zM414 518h268l66 305h-265z" />
<glyph unicode="$" d="M113 98l61 162q190 -88 389 -88q129 0 197.5 50t68.5 163q0 48 -17 83t-52 59.5t-74 40.5t-98 32q-182 52 -250 84q-146 68 -184 189q-15 50 -15 110q0 162 100 265.5t275 123.5v197h141v-195q185 -11 320 -84l-62 -157q-156 65 -319 65q-103 0 -166 -53.5t-63 -153.5 q0 -30 9.5 -55t32 -44t43 -32.5t58.5 -26.5t62 -20t69 -18q154 -42 222 -77q184 -96 195 -304q1 -14 1 -29q0 -170 -109 -269.5t-293 -117.5v-201h-141v199q-237 7 -401 102z" />
<glyph unicode="%" horiz-adv-x="1761" d="M51 948q0 64 9 121t33.5 114t63.5 97.5t103.5 66t147.5 25.5q342 0 342 -422q0 -65 -10.5 -123t-36 -112.5t-64 -93.5t-99 -62.5t-137.5 -23.5q-352 0 -352 413zM227 946q0 -65 7 -111.5t26 -87t56 -61t92 -20.5q165 0 165 282q0 35 -1.5 62.5t-6.5 64t-16.5 63.5t-29 51 t-46 37t-65.5 13q-181 0 -181 -293zM494 -43l624 1485h144l-621 -1485h-147zM1010 406q0 64 9 120t33.5 113.5t62.5 98t102 66t147 25.5q344 0 344 -423q0 -65 -10.5 -123t-36 -112.5t-64 -94t-99 -63t-136.5 -23.5q-83 0 -146.5 23t-102 61t-62 93.5t-32.5 112.5t-9 126z M1186 403q0 -66 7 -112.5t25.5 -87.5t55 -61.5t90.5 -20.5q168 0 168 285q0 42 -2.5 75t-12 76t-26.5 71t-49.5 48t-77.5 20q-178 0 -178 -293z" />
<glyph unicode="&#x26;" horiz-adv-x="1552" d="M80 381q0 262 332 442q-105 148 -105 273q0 59 18.5 113t55.5 99t100.5 72t145.5 27q87 0 153 -26t102.5 -69t54 -90.5t17.5 -99.5q0 -57 -21 -107.5t-62 -93.5t-86.5 -77t-110.5 -72q184 -267 348 -428q88 83 141 198.5t72 301.5h178q-12 -207 -76.5 -352.5 t-187.5 -266.5q150 -138 301 -202q-9 -16 -39 -66t-45 -78q-78 34 -181 100.5t-179 135.5q-202 -140 -451 -140q-209 0 -342 105t-133 301zM287 393q0 -124 79.5 -190t202.5 -66q73 0 157.5 23t145.5 69q-186 204 -362 455q-106 -62 -164.5 -131.5t-58.5 -159.5zM500 1110 q0 -80 86 -203q90 48 140 97.5t50 117.5q0 62 -40 98.5t-107 36.5q-64 0 -96.5 -46t-32.5 -101z" />
<glyph unicode="'" horiz-adv-x="442" d="M125 1407h194l-34 -457h-129z" />
<glyph unicode="(" horiz-adv-x="630" d="M125 578q0 150 31.5 293t83.5 254.5t103 191.5t106 143l96 -61q-24 -37 -47.5 -80t-57 -123t-57.5 -165t-41.5 -205t-17.5 -244q0 -139 17.5 -268t41.5 -218t57.5 -171t57 -124.5t49.5 -81.5l-98 -67q-55 61 -105.5 142t-103 196.5t-84 269t-31.5 318.5z" />
<glyph unicode=")" horiz-adv-x="634" d="M72 -281q223 345 223 865q0 153 -24.5 295t-63.5 245t-70.5 165.5t-62.5 109.5l98 61q43 -49 83 -107t85 -144.5t78 -178.5t54.5 -211t21.5 -241q0 -134 -22 -261.5t-55.5 -224.5t-79.5 -186t-86 -147t-83 -107z" />
<glyph unicode="*" horiz-adv-x="829" d="M94 1116q19 112 62 187q25 -14 97.5 -55.5t113.5 -63.5l-23 103.5t-27 129.5q41 10 103 10q57 0 96 -10q-38 -186 -49 -233l213 114q47 -64 61 -186q-40 -4 -121 -14.5t-124 -14.5l176 -165q-67 -70 -154 -113q-28 59 -102 219q-65 -133 -103 -219q-84 40 -157 113 q23 22 83.5 78.5t92.5 88.5z" />
<glyph unicode="+" horiz-adv-x="1175" d="M190 543v145h336v336h150v-336h334v-145h-334v-346h-150v346h-336z" />
<glyph unicode="," horiz-adv-x="483" d="M88 -209q93 90 102 203q-43 9 -66.5 40t-23.5 77q0 52 38.5 89.5t97.5 37.5q68 0 106.5 -44t38.5 -110q0 -101 -69 -208t-169 -157z" />
<glyph unicode="-" horiz-adv-x="776" d="M115 459v172h547v-172h-547z" />
<glyph unicode="." horiz-adv-x="471" d="M94 111q0 54 37.5 90.5t97.5 36.5t98 -36.5t38 -90.5q0 -56 -38 -92.5t-98 -36.5q-61 0 -98 36.5t-37 92.5z" />
<glyph unicode="/" horiz-adv-x="720" d="M23 -63l528 1503h156l-529 -1503h-155z" />
<glyph unicode="0" d="M53 692q0 110 13.5 207.5t50.5 196.5t95 169.5t154 115t220 44.5q91 0 166.5 -24t128.5 -63.5t93.5 -97.5t65 -120.5t40 -137t21 -142.5t5.5 -142q0 -112 -16 -211.5t-54.5 -193t-97 -161t-149 -108t-205.5 -40.5q-125 0 -220 39.5t-153 104t-94.5 158.5t-50 191.5 t-13.5 214.5zM283 690q0 -95 7 -168t27 -143t53 -115t87.5 -72.5t128.5 -27.5q291 0 291 528q0 56 -2 101t-9 104.5t-18.5 105t-33.5 92.5t-52 78t-75 50.5t-101 19.5q-303 0 -303 -553z" />
<glyph unicode="1" d="M197 1165v154l313 86h209v-1405h-227v1194z" />
<glyph unicode="2" d="M59 1274q114 82 235.5 119t227.5 37q203 0 323 -104.5t120 -299.5q0 -60 -17.5 -123.5t-42.5 -118t-69 -118.5t-80.5 -109t-95 -107t-93.5 -96.5t-96 -93t-84 -80.5l4 -10h631v-170h-952v150l213 198q444 416 446 660q0 113 -64.5 170t-181.5 57q-172 0 -350 -107z" />
<glyph unicode="3" d="M47 78l64 170q203 -82 352 -82q152 0 233.5 67.5t83.5 167.5q1 143 -105 209.5t-321 69.5v158q98 4 171 27t114 58.5t60.5 75.5t19.5 84q0 69 -51.5 114.5t-151.5 45.5q-168 0 -369 -104l-63 164q112 62 228 94.5t212 32.5q108 0 192.5 -27t134.5 -73.5t75.5 -103.5 t25.5 -122q0 -41 -14 -85t-42 -88t-79.5 -81.5t-118.5 -58.5v-7q153 -28 235.5 -129.5t82.5 -238.5q0 -89 -36 -168t-101.5 -138t-165 -93.5t-219.5 -34.5q-281 0 -447 96z" />
<glyph unicode="4" d="M41 381v145l621 879h237v-860h201v-164h-201l2 -381h-221v381h-639zM258 545h426v588h-12z" />
<glyph unicode="5" d="M86 72l53 159q207 -65 344 -65q159 0 246.5 70.5t87.5 212.5q0 127 -86 194.5t-217 67.5q-103 0 -221 -54l-127 66q1 24 23.5 341t23.5 341h770v-176h-588l-22 -383q5 1 24.5 7t34.5 10t38 8.5t50.5 7t57.5 2.5q95 0 179 -26.5t150.5 -78.5t105 -137.5t38.5 -194.5 q0 -113 -41.5 -202.5t-114 -145.5t-165.5 -85t-200 -29q-273 0 -444 90z" />
<glyph unicode="6" d="M94 639q0 172 33.5 312.5t102 248t181 166.5t261.5 59q161 0 307 -57q-5 -17 -20.5 -83t-20.5 -85q-123 43 -254 43q-79 0 -142 -33t-100.5 -80.5t-64 -111t-37.5 -115t-16 -102.5l12 -8q165 94 330 94q87 0 161 -26t132 -77.5t91 -137t33 -197.5q0 -217 -132.5 -340 t-350.5 -123q-506 0 -506 653zM326 573q0 -56 5 -105.5t22.5 -107t46.5 -98.5t81 -68.5t121 -27.5q122 0 191 75.5t69 200.5q0 129 -57 201t-191 72q-40 0 -79.5 -7t-67 -16.5t-55 -22.5t-42 -22.5t-29.5 -20.5l-15 -10v-43z" />
<glyph unicode="7" d="M121 1231v174h866v-154l-553 -1251h-223l553 1231h-643z" />
<glyph unicode="8" d="M82 358q0 117 59.5 230t190.5 192q-95 59 -138.5 124t-43.5 161q0 154 127 257t323 103q63 0 124 -11.5t119.5 -38.5t102.5 -66t71 -99.5t27 -134.5q0 -195 -196 -342q233 -121 233 -354q0 -170 -137.5 -282.5t-365.5 -112.5q-234 0 -365 103t-131 271zM311 381 q0 -96 69.5 -160.5t203.5 -64.5q128 0 200 69t72 166q0 37 -10 68t-33 58t-49.5 48t-72 45t-86.5 42.5t-107 45.5q-187 -126 -187 -317zM369 1061q0 -19 4.5 -37t11 -32.5t19.5 -29t24 -25t31.5 -23.5t35 -21.5t40.5 -21t42 -19.5t46.5 -20.5t46.5 -20.5q166 120 166 244 q0 36 -13.5 70t-40.5 64.5t-75.5 49t-110.5 18.5q-59 0 -105 -20t-71.5 -51.5t-38 -63.5t-12.5 -61z" />
<glyph unicode="9" d="M80 961q0 218 131 342t348 124q138 0 238 -50t156.5 -142t82 -206t25.5 -257q0 -138 -20.5 -255.5t-65.5 -216.5t-111.5 -168.5t-162.5 -108.5t-214 -39q-102 0 -187.5 16t-131.5 39l43 166q116 -43 264 -43q77 0 139 33.5t99 82t64 113t38 116.5t16 103l-12 8 q-156 -96 -325 -96q-183 0 -298.5 110t-115.5 329zM299 969q0 -273 244 -273q48 0 93 9t77.5 23t56 27t41 25t18.5 13v45q0 44 -3.5 84t-13 88.5t-29.5 87t-48.5 71.5t-74 51.5t-103.5 18.5q-123 0 -190.5 -73t-67.5 -197z" />
<glyph unicode=":" horiz-adv-x="475" d="M106 113q0 55 37 91t97 36q61 0 98 -36t37 -91q0 -56 -36 -92.5t-99 -36.5q-61 0 -97.5 36.5t-36.5 92.5zM106 743q0 56 36.5 91.5t97.5 35.5t98 -35.5t37 -91.5q0 -55 -38 -92t-97 -37t-96.5 37t-37.5 92z" />
<glyph unicode=";" horiz-adv-x="475" d="M86 -207q92 86 104 201q-44 9 -67 40t-23 77q0 52 38.5 89.5t97.5 37.5q68 0 105.5 -44t37.5 -110q0 -101 -68 -208t-168 -157zM106 743q0 56 36.5 91.5t97.5 35.5t98 -35.5t37 -91.5q0 -55 -38 -92t-97 -37t-96.5 37t-37.5 92z" />
<glyph unicode="&#x3c;" horiz-adv-x="1183" d="M168 549v121l862 426v-168l-674 -316l674 -325v-166z" />
<glyph unicode="=" horiz-adv-x="1183" d="M166 389v139h848v-139h-848zM166 700v144h848v-144h-848z" />
<glyph unicode="&#x3e;" horiz-adv-x="1183" d="M168 121v166l672 325l-672 316v168l862 -426v-121z" />
<glyph unicode="?" horiz-adv-x="958" d="M88 1368q200 72 397 72q198 0 304 -78.5t112 -220.5q0 -64 -23.5 -124t-61.5 -106.5t-83.5 -90t-91 -83.5t-83.5 -78t-61.5 -82t-23.5 -88q0 -17 2 -36t6 -46.5t6 -44.5l-186 -16q-20 106 -20 172q0 57 15 104t51.5 94.5t71.5 82.5t101 94q69 59 101 109.5t32 111.5 q0 73 -53.5 109.5t-146.5 36.5q-154 0 -314 -54q-41 138 -51 162zM291 98q0 53 36 88t95 35t95 -35t36 -88t-36.5 -87t-94.5 -34t-94.5 34.5t-36.5 86.5z" />
<glyph unicode="@" horiz-adv-x="1941" d="M164 659q0 166 66.5 312.5t179.5 249.5t269.5 163t330.5 60q356 0 561 -196t205 -523q0 -106 -33 -193t-89.5 -142t-127.5 -84.5t-150 -29.5q-75 0 -145.5 31.5t-100.5 93.5q-50 -53 -124 -82.5t-152 -29.5q-70 0 -120 23.5t-74.5 61.5t-35 75.5t-10.5 76.5q0 103 63 158 t195 74l228 24v37q0 83 -30 114.5t-112 31.5q-109 0 -243 -41q-11 35 -19.5 64.5t-12.5 43t-7 21.5q158 63 321 63q136 0 210.5 -62.5t74.5 -207.5v-318q0 -110 125 -110q38 0 75 17.5t69.5 52t52.5 94.5t20 135q0 270 -165 426.5t-449 156.5q-141 0 -269 -49t-221.5 -133 t-149 -202.5t-55.5 -251.5q0 -136 48.5 -255.5t133 -204t203 -133t254.5 -48.5q141 0 281 49l45 -125q-141 -66 -324 -66q-237 0 -418 100.5t-277.5 276.5t-96.5 401zM813 543q0 -115 115 -115q79 0 172 74v166q-12 -1 -38 -3.5t-40 -3.5t-38.5 -4t-39 -6t-34.5 -8.5 t-32 -11t-26 -14.5t-21.5 -19.5t-12.5 -24.5t-5 -30z" />
<glyph unicode="A" horiz-adv-x="1271" d="M18 0q90 271 250.5 749t220.5 656h302l460 -1405h-245q-4 13 -45.5 144.5t-61.5 199.5h-534l-107 -344h-240zM420 512h428q-21 77 -64 219.5t-57 190.5q-81 279 -88 309h-8q-23 -81 -44.5 -155t-30 -104.5t-15.5 -53.5z" />
<glyph unicode="B" horiz-adv-x="1296" d="M156 0v1405h559q206 0 314 -100.5t108 -268.5q0 -55 -16 -106.5t-59.5 -104.5t-111.5 -86v-6q66 -21 113.5 -62.5t70.5 -92.5t32.5 -95.5t9.5 -87.5q0 -177 -119 -286t-301 -109h-600zM391 172h293q129 0 190.5 66.5t61.5 171.5q0 100 -65 166.5t-187 66.5h-293v-471z M391 811h260q117 0 180.5 54.5t63.5 152.5q0 99 -60 156t-184 57h-260v-420z" />
<glyph unicode="C" horiz-adv-x="1241" d="M113 694q0 68 8.5 136t30 142t54 139t83 124.5t114.5 102t152.5 67.5t192.5 25q116 0 220.5 -30.5t176.5 -82.5l-86 -164q-133 94 -314 94q-185 0 -284 -147.5t-99 -407.5q0 -90 9 -162.5t34 -142.5t66 -117t109.5 -75.5t160.5 -28.5q171 0 355 94l69 -166 q-78 -52 -207 -82t-235 -30q-165 0 -284 50t-190 145.5t-103.5 223t-32.5 293.5z" />
<glyph unicode="D" horiz-adv-x="1363" d="M154 0v1405h446q140 0 252 -36.5t185.5 -100t122.5 -153t70 -190.5t21 -218t-23.5 -220t-75.5 -193t-128 -155t-188 -102t-250 -37h-432zM395 174h168q34 0 68 4t79 17.5t84 35.5t79 62t68 92.5t45.5 132t17.5 176.5q0 136 -31 238.5t-76 158t-107.5 89.5t-113.5 43.5 t-107 9.5h-174v-1059z" />
<glyph unicode="E" horiz-adv-x="1198" d="M156 0v1405h911v-172h-672v-412h566v-164h-566v-483h703v-174h-942z" />
<glyph unicode="F" horiz-adv-x="1134" d="M156 0v1405h903v-174h-666v-428h537v-168h-537v-635h-237z" />
<glyph unicode="G" horiz-adv-x="1323" d="M113 694q0 68 9 136t31 142t55.5 139t86 124.5t119.5 102t160 67.5t202 25q116 0 223 -30t181 -83l-86 -166q-142 96 -316 96q-194 0 -305 -149t-111 -408q0 -92 11.5 -167.5t40 -142.5t73 -112.5t113.5 -71.5t160 -26q46 0 108.5 11.5t110.5 33.5v399h-236v162h453v-676 q-98 -62 -218.5 -90t-234.5 -28q-630 0 -630 712z" />
<glyph unicode="H" horiz-adv-x="1392" d="M154 0v1405h241q0 -80 -1 -291.5t-1 -292.5h602v584h242v-1405h-242v657h-602q0 -90 1 -329t1 -328h-241z" />
<glyph unicode="I" horiz-adv-x="585" d="M174 0v1405h236v-1405h-236z" />
<glyph unicode="J" horiz-adv-x="690" d="M-100 -211q206 105 280 210t74 290l2 1118h238l-2 -1118q0 -272 -132 -432.5t-401 -237.5z" />
<glyph unicode="K" horiz-adv-x="1273" d="M156 0v1405h235v-594h4l559 594h275l-541 -555l565 -850h-274q-304 464 -449 690l-139 -141v-549h-235z" />
<glyph unicode="L" horiz-adv-x="1142" d="M156 0v1405h237v-1235h729v-170h-966z" />
<glyph unicode="M" horiz-adv-x="1753" d="M152 0v1405h282q82 -208 231 -597.5t201 -524.5h15l440 1122h276v-1405h-231v971h-6q-43 -107 -122 -305t-144 -360.5t-123 -305.5h-201l-381 954h-6q0 -158 -1 -477t-1 -477h-229z" />
<glyph unicode="N" horiz-adv-x="1458" d="M156 0v1405h239l473 -739l191 -306h12v1045h229v-1405h-235l-510 803q-9 14 -79 127.5t-83 136.5q-2 0 -5 -1t-5 -1v-1065h-227z" />
<glyph unicode="O" horiz-adv-x="1478" d="M115 696q0 122 21.5 228.5t70 200.5t121 161t179.5 105.5t241 38.5t240.5 -39t176 -105.5t115 -161t65 -199t19.5 -225.5q0 -155 -39.5 -285.5t-115 -227t-193.5 -151t-268 -54.5q-165 0 -287.5 50.5t-197.5 146t-111.5 224t-36.5 293.5zM365 694q0 -267 90.5 -401.5 t292.5 -134.5q124 0 207.5 72.5t120 190.5t36.5 275q0 559 -364 559q-383 0 -383 -561z" />
<glyph unicode="P" horiz-adv-x="1179" d="M156 0v1405h495q217 0 339 -110.5t122 -309.5q0 -59 -13.5 -116.5t-46.5 -114.5t-81.5 -100t-125 -70t-171.5 -27h-281l2 -557h-239zM393 727h240q47 0 87 12.5t74.5 40.5t54 78.5t19.5 120.5q0 126 -67.5 190t-177.5 64h-230v-506z" />
<glyph unicode="Q" horiz-adv-x="1482" d="M113 696q0 122 22 228.5t70.5 200.5t121 161t180 105.5t241.5 38.5t240.5 -39t176 -105.5t115 -161t65 -199t19.5 -225.5q0 -268 -114 -454.5t-328 -239.5q194 -88 499 -123l-30 -196q-208 14 -429 90t-384 219q-465 94 -465 700zM362 692q0 -266 90.5 -401t290.5 -135 q95 0 167 41t115.5 115t65 170.5t21.5 213.5q0 559 -364 559q-386 0 -386 -563z" />
<glyph unicode="R" horiz-adv-x="1241" d="M154 0v1405h522q113 0 200.5 -32.5t140 -89t79 -128.5t26.5 -156q0 -78 -26.5 -153.5t-91 -143t-156.5 -96.5l303 -606h-258l-279 582h-225v-582h-235zM389 750h248q106 0 174 58t68 185q0 118 -67 179t-179 61h-244v-483z" />
<glyph unicode="S" horiz-adv-x="1224" d="M92 92l70 170q214 -94 426 -94q148 0 221.5 51.5t73.5 171.5q0 42 -13.5 74.5t-34.5 54.5t-58.5 40.5t-72 30t-88.5 25.5q-71 18 -110.5 29t-99.5 31.5t-93.5 39.5t-74.5 49.5t-62 65t-36 82.5t-15 105q0 191 133 301.5t367 110.5q249 0 415 -95l-67 -164 q-165 72 -359 72q-111 0 -176 -56t-65 -161q0 -38 17.5 -68.5t41.5 -50t69 -37.5t78.5 -27.5t90.5 -23.5q159 -41 222 -69q180 -77 223 -237q15 -55 15 -122q0 -201 -145 -305t-410 -104q-120 0 -248.5 26.5t-234.5 83.5z" />
<glyph unicode="T" horiz-adv-x="1200" d="M35 1227v178h1130v-178h-446l-2 -1227h-234v1227h-448z" />
<glyph unicode="U" horiz-adv-x="1406" d="M141 510v895h236v-901q0 -173 85 -259.5t245 -86.5q156 0 240.5 85.5t84.5 260.5l-2 901h236l-2 -895q0 -250 -140 -389t-422 -139q-561 0 -561 528z" />
<glyph unicode="V" horiz-adv-x="1228" d="M18 1405h252q242 -816 267 -909q32 -111 71 -269h13q51 166 75 269q17 67 71.5 255t116.5 400t74 254h252q-39 -116 -227 -702.5t-227 -702.5h-287z" />
<glyph unicode="W" horiz-adv-x="1822" d="M18 1405h250q24 -105 84.5 -382t87.5 -394q7 -32 32.5 -161.5t39.5 -193.5h12l68 336q26 122 88 397.5t88 397.5h254q8 -28 101.5 -390t101.5 -394q3 -11 21 -84t38 -156.5t25 -104.5h14l72 367q116 544 166 762h243q-180 -765 -340 -1405h-288q-126 494 -195 754 q-11 41 -38.5 164t-39.5 165l-14 2l-68 -331q-1 -6 -29.5 -134.5t-70.5 -320t-66 -299.5h-295z" />
<glyph unicode="X" horiz-adv-x="1230" d="M14 0q158 245 457 729q-238 382 -424 676h270q44 -79 95 -167t114 -195t97 -166l311 528h268q-191 -289 -442 -682l454 -723h-266q-61 99 -174 290t-166 277l-329 -567h-265z" />
<glyph unicode="Y" horiz-adv-x="1189" d="M18 1405h248q14 -31 92 -184t93 -183l133 -282h10l145 295l185 354h243q-209 -387 -452 -827v-578h-252v555z" />
<glyph unicode="Z" horiz-adv-x="1153" d="M41 0v166l721 1055l-2 6h-668v178h985v-164l-725 -1055v-6q127 0 381 -1t381 -1v-178h-1073z" />
<glyph unicode="[" horiz-adv-x="585" d="M119 -328v1758h395v-138h-197v-1485h197v-135h-395z" />
<glyph unicode="\" horiz-adv-x="720" d="M23 1440h155l529 -1503h-158z" />
<glyph unicode="]" horiz-adv-x="585" d="M74 -193h196v1485h-196v138h393v-1758h-393v135z" />
<glyph unicode="^" horiz-adv-x="952" d="M41 754l369 639h118l367 -639h-160l-266 473l-268 -473h-160z" />
<glyph unicode="_" horiz-adv-x="1024" d="M0 -164h1024v-121h-1024v121z" />
<glyph unicode="`" horiz-adv-x="1030" d="M287 1374l143 148l279 -336l-93 -94z" />
<glyph unicode="a" horiz-adv-x="1052" d="M70 268q0 144 98 224.5t258 89.5q45 3 144.5 8t144.5 8v47q0 109 -42.5 157t-158.5 48q-153 0 -317 -53q-10 41 -41 145q87 38 198.5 60t212.5 22q179 0 273 -80t94 -262v-682h-203l-10 104q-2 2 -4 2q-148 -122 -344 -122q-69 0 -123.5 18.5t-87.5 47t-54.5 67.5 t-29.5 75.5t-8 75.5zM311 289q0 -78 39 -116t123 -38q117 0 242 109v219l-232 -17q-172 -12 -172 -157z" />
<glyph unicode="b" horiz-adv-x="1120" d="M111 78v1382h229v-299q-6 -189 -6 -219l12 -8q152 90 297 90q108 0 185 -38.5t120.5 -111t62.5 -164.5t19 -212q0 -514 -461 -514q-111 0 -233.5 23t-224.5 71zM342 195q99 -43 215 -43q117 0 178.5 77t61.5 265q0 86 -11 149t-29 101.5t-46.5 61.5t-58.5 31.5t-70 8.5 q-108 0 -240 -74v-577z" />
<glyph unicode="c" horiz-adv-x="966" d="M88 492q0 71 11.5 139t44.5 141.5t84 128t137.5 90t197.5 35.5q192 0 326 -90l-80 -158q-119 68 -238 68q-124 0 -184.5 -91.5t-60.5 -260.5q0 -73 10.5 -129.5t36 -104.5t73.5 -74t117 -26q68 0 132 15.5t155 64.5l63 -154q-154 -104 -360 -104q-126 0 -217 36 t-144.5 105t-78.5 160t-25 209z" />
<glyph unicode="d" horiz-adv-x="1122" d="M86 479q0 120 23 216.5t71.5 171.5t131 116t194.5 41q161 0 274 -68v504h232v-1460h-211l-8 94q-1 0 -3.5 1t-3.5 1q-67 -54 -152 -82t-161 -28q-87 0 -154.5 26t-111 70.5t-71 108.5t-39 134t-11.5 154zM319 481q0 -183 59.5 -257t166.5 -74q51 0 122.5 29.5t112.5 64.5 v544q-40 26 -106 45t-123 19q-232 0 -232 -371z" />
<glyph unicode="e" horiz-adv-x="1073" d="M90 498q0 67 10.5 132t42 138.5t81 128t135 91t196.5 36.5q86 0 155 -19.5t113 -49t76.5 -74.5t49 -85.5t25.5 -93t11 -86t2 -75.5v-92h-663v-6q0 -287 268 -287q151 0 321 67l50 -143q-171 -96 -400 -96q-111 0 -195 27t-136 73t-84.5 113.5t-45 139.5t-12.5 161z M326 592h448q0 133 -48 205.5t-163 72.5q-214 0 -237 -278z" />
<glyph unicode="f" horiz-adv-x="794" d="M68 846v125l141 39v143q0 326 352 326q139 0 242 -29l-29 -160q-90 17 -162 17q-91 0 -135.5 -36t-44.5 -118v-149h291v-158h-291q0 -23 -1 -424t-1 -422h-223v846h-139z" />
<glyph unicode="g" horiz-adv-x="1116" d="M59 -166q0 70 42.5 129.5t101.5 87.5q-64 19 -96.5 65t-32.5 103q0 78 50.5 137t131.5 74v10q-53 31 -85 92t-32 146q0 87 34.5 155.5t92.5 109t128.5 61t148.5 20.5q113 0 192 -23q54 3 344 23v-141h-172l-4 -9q62 -68 62 -186q0 -147 -116.5 -238.5t-297.5 -91.5h-127 q-70 0 -111 -31t-41 -67q0 -72 107 -72h258q206 0 313 -64.5t107 -207.5q0 -153 -145.5 -256.5t-399.5 -103.5q-104 0 -185 17t-130.5 44.5t-81.5 65t-44 74.5t-12 77zM291 -121q0 -153 239 -153q130 0 206.5 46.5t76.5 123.5q0 60 -46.5 93.5t-162.5 33.5h-205 q-45 -18 -76.5 -57.5t-31.5 -86.5zM371 688q0 -77 47.5 -125.5t126.5 -48.5q82 0 134 46.5t52 129.5q0 70 -44 120t-136 50q-85 0 -132.5 -48.5t-47.5 -123.5z" />
<glyph unicode="h" horiz-adv-x="1107" d="M109 0v1460h227v-325l-6 -215l16 -9q89 50 184.5 81.5t163.5 31.5q79 0 135.5 -19.5t88 -48.5t49.5 -76t23 -89.5t5 -100.5v-690h-229v639q0 52 -4.5 84t-20 62t-48 43.5t-85.5 13.5q-58 0 -131.5 -25t-136.5 -61v-756h-231z" />
<glyph unicode="i" horiz-adv-x="565" d="M141 1274q0 57 39.5 95t100.5 38q64 0 103.5 -37.5t39.5 -95.5q0 -55 -40 -94t-103 -39q-62 0 -101 39t-39 94zM166 0v1004h229v-1004h-229z" />
<glyph unicode="j" horiz-adv-x="585" d="M-66 -301q106 61 156.5 109.5t70 106t19.5 155.5v934h232q0 -908 -2 -953q-6 -215 -96.5 -326t-315.5 -182q-6 14 -31 77t-33 79zM160 1274q0 58 38.5 95.5t100.5 37.5t101.5 -37.5t39.5 -95.5q0 -56 -39.5 -94.5t-101.5 -38.5q-63 0 -101 38t-38 95z" />
<glyph unicode="k" horiz-adv-x="1007" d="M109 0v1458h233l-2 -573q0 -86 -8 -258q4 -4 14 -4l365 381h258l-383 -396q5 -7 34.5 -42t34.5 -42q15 -24 171.5 -262.5t170.5 -261.5h-254q-148 227 -301 473l-100 -100v-373h-233z" />
<glyph unicode="l" horiz-adv-x="512" d="M139 0v1460h230v-1460h-230z" />
<glyph unicode="m" horiz-adv-x="1712" d="M111 0v1004h217l4 -97l8 -4q82 58 174 89.5t170 31.5q168 0 242 -125q74 54 176.5 89.5t185.5 35.5q79 0 137 -20.5t91 -51.5t52 -79t25 -92t6 -101v-680h-231v649q0 102 -33 147.5t-125 45.5q-58 0 -130.5 -22.5t-121.5 -55.5q11 -59 11 -133v-631h-228q0 54 -1 338 t-1 338q0 83 -36.5 124.5t-104.5 41.5q-121 0 -258 -86v-756h-229z" />
<glyph unicode="n" horiz-adv-x="1107" d="M109 0v1004h221l4 -91l6 -4q84 54 181 85.5t171 31.5q78 0 134.5 -19.5t88.5 -49t50.5 -76t24 -89.5t5.5 -100v-692h-229v641q0 40 -3 68t-12 55.5t-26 43.5t-46.5 26t-70.5 10q-115 0 -268 -88v-756h-231z" />
<glyph unicode="o" horiz-adv-x="1130" d="M90 498q0 85 16.5 160.5t53 143t91.5 116.5t137 77.5t183 28.5q103 0 184.5 -28.5t134 -77t87 -116.5t49 -142t14.5 -158t-15 -157.5t-50.5 -141t-90 -116t-138.5 -77t-191 -28.5q-102 0 -182.5 27t-133 74t-86.5 113.5t-48.5 140.5t-14.5 161zM328 498q0 -62 5 -109 t21 -94t42 -77.5t70.5 -49t104.5 -18.5q232 0 232 348q0 358 -232 358q-70 0 -119.5 -30.5t-75.5 -84t-37 -113t-11 -130.5z" />
<glyph unicode="p" horiz-adv-x="1122" d="M111 -428v1432h217l4 -82l10 -9q66 53 146 82t155 29q387 0 387 -508q0 -115 -22.5 -208.5t-70.5 -168t-130 -116t-193 -41.5q-175 0 -276 63v-473h-227zM340 211q35 -24 102 -44t123 -20q49 0 89 19t73.5 61t52.5 117.5t19 179.5q0 93 -16.5 158t-48 100.5t-70.5 50.5 t-91 15q-53 0 -125 -28.5t-108 -61.5v-547z" />
<glyph unicode="q" horiz-adv-x="1122" d="M90 463q0 94 13.5 173t48 152.5t88 124t138.5 81t195 30.5q102 0 222 -23.5t215 -64.5q0 -113 -1 -682t-1 -680h-226v262q0 137 2 209l-14 10q-143 -75 -278 -75q-402 0 -402 483zM322 500q0 -102 15.5 -172t45.5 -107t67 -52t87 -15q111 0 241 71v590q-88 39 -203 39 q-116 0 -183 -85.5t-70 -268.5z" />
<glyph unicode="r" horiz-adv-x="757" d="M131 0v1004h217l8 -199q4 0 6 -2q66 119 167 171t216 52v-213q-238 -4 -383 -192v-621h-231z" />
<glyph unicode="s" horiz-adv-x="958" d="M72 63l57 148q175 -68 334 -68q199 0 199 136q0 25 -10.5 45.5t-25 34.5t-41 27t-47.5 21t-55 19q-16 5 -24 8q-152 51 -204 77q-124 65 -143 175q-3 22 -3 45q0 142 105.5 217.5t289.5 75.5q81 0 170 -18t155 -56q-1 -3 -14.5 -38.5t-26.5 -70.5t-16 -40 q-134 53 -264 53q-77 0 -126.5 -27.5t-49.5 -91.5q0 -24 13.5 -42.5t49.5 -35.5t51 -22.5t64 -20.5l18 -6q46 -13 73.5 -22t70 -26t69 -33t57.5 -42t48 -54.5t29 -68.5t12 -86q0 -145 -112.5 -218.5t-319.5 -73.5q-97 0 -203.5 20t-179.5 59z" />
<glyph unicode="t" horiz-adv-x="778" d="M35 846v125l158 47q3 9 30.5 116t30.5 115l152 19v-264h296v-158h-296v-527q0 -81 29.5 -120t107.5 -39q53 0 180 30l33 -151q-119 -55 -269 -55q-309 0 -309 272v590h-143z" />
<glyph unicode="u" horiz-adv-x="1087" d="M109 309v695h229v-642q0 -50 5 -82.5t20.5 -62t48 -43.5t82.5 -14q54 0 123 28t128 82v734h230v-1004h-215l-8 113l-7 4q-85 -76 -175 -106.5t-162 -30.5q-78 0 -134.5 19t-87.5 47.5t-49 75t-23 88t-5 99.5z" />
<glyph unicode="v" horiz-adv-x="1038" d="M18 1004h238q15 -48 72 -222.5t86 -269.5q13 -39 49.5 -170t54.5 -180h10q4 10 43.5 152.5t65.5 220.5q29 86 85.5 267t63.5 202h232q-44 -123 -172.5 -492t-179.5 -512h-301q-52 147 -180 519t-167 485z" />
<glyph unicode="w" horiz-adv-x="1576" d="M25 1004h229l127 -492l70 -313h10l76 323l131 482h221l147 -500l78 -303h14l66 303l129 500h225l-284 -1004h-263l-131 446l-88 340h-12l-80 -340l-121 -446h-262z" />
<glyph unicode="x" horiz-adv-x="974" d="M8 0l340 522l-311 482h254q34 -60 99 -179t99 -178q41 69 113.5 198t89.5 159h250l-319 -478l340 -526h-252q-22 39 -101.5 178.5t-122.5 216.5q-36 -59 -113 -191.5t-120 -203.5h-246z" />
<glyph unicode="y" horiz-adv-x="995" d="M-4 -406q5 30 16 85l15 75q117 -24 170 -24q44 0 69 7.5t48.5 37.5t39 67.5t45.5 120.5q-74 199 -209 571.5t-170 469.5h242l238 -775h12q125 426 231 775h230q-53 -156 -188.5 -557t-209.5 -617q-29 -85 -64.5 -140t-80 -84t-91 -39.5t-110.5 -10.5q-101 0 -233 38z" />
<glyph unicode="z" horiz-adv-x="899" d="M23 0v131l534 698l-4 13h-475v162h776v-136l-537 -696l7 -12h555v-160h-856z" />
<glyph unicode="{" horiz-adv-x="604" d="M61 532v121q140 27 140 217v246q0 46 3 83t15.5 84t33.5 79t61 54t94 22h151v-135h-49q-111 0 -111 -136v-313q0 -40 -2.5 -70.5t-11 -63t-23 -55t-39 -41t-57.5 -26.5q85 -41 109 -105.5t24 -193.5v-375q0 -62 22 -97.5t81 -35.5h57v-133h-139q-219 0 -219 262v410 q0 83 -30.5 135.5t-109.5 66.5z" />
<glyph unicode="|" horiz-adv-x="567" d="M201 -293v1733h155v-1733h-155z" />
<glyph unicode="}" horiz-adv-x="604" d="M47 -209h57q60 0 81.5 35t21.5 98v375q0 65 4 105t17 79.5t40.5 66t71.5 46.5q-133 43 -133 244v327q0 136 -109 136h-51v135h152q209 0 209 -271v-305q0 -181 139 -209v-121q-139 -25 -139 -202v-365v-9q5 -298 -222 -298h-139v133z" />
<glyph unicode="~" horiz-adv-x="1175" d="M143 555q39 96 104.5 146.5t145.5 50.5q69 0 228 -47.5t217 -47.5l139 99l84 -66q-38 -96 -101 -148.5t-147 -52.5q-71 0 -156 23.5t-160.5 47.5t-121.5 24l-148 -97z" />
<glyph unicode="&#xa1;" horiz-adv-x="520" d="M127 893q0 54 36.5 90.5t96.5 36.5q58 0 94.5 -37t36.5 -90t-36 -88t-97 -35q-59 0 -95 35.5t-36 87.5zM150 -434q4 172 8 512l22 547h162q2 -96 15.5 -464.5t13.5 -594.5h-221z" />
<glyph unicode="&#xa2;" d="M182 657q0 71 10.5 137t39.5 137t75.5 124.5t125.5 90.5t181 44v186h107v-184q128 -7 240 -49q-4 -19 -20 -78.5t-21 -83.5q-96 29 -199 33v-682q112 5 240 57l47 -156q-123 -63 -287 -75v-187h-107v183q-98 4 -173.5 32t-124 72.5t-79 108.5t-43 134.5t-12.5 155.5z M416 670q0 -141 45.5 -226t152.5 -106v663q-98 -23 -148 -109t-50 -222z" />
<glyph unicode="&#xa3;" d="M102 0v160q39 20 68.5 53.5t46.5 78.5t27.5 85.5t15 96.5t5.5 88.5t1 82.5h-135v133h143q11 126 11 211q14 205 118.5 321.5t313.5 116.5q203 0 360 -73l-59 -160q-136 51 -281 51q-49 0 -87 -11.5t-64 -30t-44 -52.5t-28.5 -68t-16 -88t-7 -100t-1.5 -117h353v-133h-361 q0 -381 -114 -483h696v-162h-961z" />
<glyph unicode="&#xa4;" horiz-adv-x="1140" d="M109 270l131 127q-74 102 -74 228q0 133 74 229l-131 133l98 98l131 -131q104 74 231 74q125 0 230 -76l131 133l100 -100l-135 -129q74 -104 74 -229q0 -118 -74 -230l135 -125l-100 -102l-133 131q-97 -74 -228 -74q-129 0 -229 74l-133 -133zM311 627 q0 -107 75 -181.5t181 -74.5q105 0 179.5 74.5t74.5 181.5q0 105 -74.5 179.5t-179.5 74.5q-106 0 -181 -75t-75 -179z" />
<glyph unicode="&#xa5;" d="M57 1405h236l280 -623h9l290 623h230l-373 -735h281v-113h-314v-113h314v-110h-314v-334h-239v334h-307v110h307v113h-307v113h264z" />
<glyph unicode="&#xa6;" horiz-adv-x="567" d="M201 -293v787h155v-787h-155zM201 709v731h155v-731h-155z" />
<glyph unicode="&#xa7;" horiz-adv-x="1013" d="M119 647q0 161 145 268q-65 45 -96 97t-31 121q0 155 113.5 238t294.5 83q195 0 323 -57l-47 -140q-146 46 -278 46q-84 0 -144.5 -41.5t-60.5 -114.5q0 -21 9.5 -41t30.5 -38.5t41.5 -33t54.5 -31.5t56.5 -27.5t61 -27t55.5 -24.5q45 -20 75 -36t66 -42t57.5 -53 t36.5 -66t15 -84q0 -78 -31 -143t-106 -125q85 -54 119 -120.5t34 -127.5q0 -160 -121 -246t-319 -86q-170 0 -338 58l43 137q155 -49 281 -49q114 0 181 47.5t67 120.5q0 60 -43 99.5t-140 82.5q-19 8 -69.5 29t-73 31t-66 31.5t-65 37.5t-51.5 42.5t-44 52t-25 59.5 t-11 73zM309 686q0 -42 16 -72t50.5 -52.5t68.5 -37.5t90 -38.5t95 -43.5q39 39 62.5 84.5t23.5 77.5q0 38 -17 68t-54 55t-68 41t-88.5 40.5t-86.5 39.5q-92 -80 -92 -162z" />
<glyph unicode="&#xa8;" horiz-adv-x="1036" d="M197 1255q0 47 32 78t84 31q56 0 88.5 -30.5t32.5 -78.5q0 -47 -32.5 -77.5t-88.5 -30.5q-53 0 -84.5 30.5t-31.5 77.5zM606 1255q0 46 32 77.5t81 31.5q57 0 90 -30.5t33 -78.5q0 -47 -33 -77.5t-90 -30.5q-51 0 -82 30.5t-31 77.5z" />
<glyph unicode="&#xa9;" horiz-adv-x="1726" d="M94 678q0 155 61 295.5t164 242.5t244.5 162t296.5 60t297 -60t245 -162t164.5 -242.5t61.5 -295.5t-61.5 -295.5t-164.5 -242.5t-245 -162t-297 -60t-296.5 60t-244.5 162t-164 242.5t-61 295.5zM201 678q0 -132 52.5 -253.5t141.5 -208.5t210.5 -139t254.5 -52 q180 0 332.5 87.5t241 238t88.5 327.5q0 178 -88.5 329t-241 238.5t-332.5 87.5q-133 0 -254.5 -52t-210.5 -139.5t-141.5 -209t-52.5 -254.5zM430 662q0 72 12.5 140t45 138.5t83 122t134 84.5t190.5 33q140 0 252 -39l-29 -123q-93 33 -209 33q-148 0 -227.5 -100.5 t-79.5 -284.5q0 -181 71 -277t238 -96q45 0 115 8.5t119 22.5l26 -117q-56 -20 -139 -33.5t-155 -13.5q-447 0 -447 502z" />
<glyph unicode="&#xaa;" horiz-adv-x="729" d="M53 731q0 37 12 67t31.5 50.5t52 36t65 25t80.5 16t88 9.5t97 5v31q0 65 -27 90.5t-96 25.5q-109 0 -213 -36l-37 114q122 52 259 58q144 0 215 -50.5t71 -181.5v-442h-155l-13 59q-92 -76 -211 -76q-62 0 -107 19t-68 50.5t-33.5 63.5t-10.5 66zM236 745q0 -92 98 -92 q28 0 69.5 17.5t75.5 42.5v133q-31 -1 -44.5 -1.5t-42 -2.5t-42.5 -5t-36 -8t-33 -12t-23 -17t-17 -24t-5 -31z" />
<glyph unicode="&#xab;" horiz-adv-x="948" d="M111 354v80l319 346l92 -67l-209 -320l209 -315l-92 -68zM451 354v80l321 346l92 -67l-209 -320l209 -315l-92 -68z" />
<glyph unicode="&#xac;" horiz-adv-x="1175" d="M190 543v145h820v-491h-152v346h-668z" />
<glyph unicode="&#xad;" horiz-adv-x="776" d="M115 459v172h547v-172h-547z" />
<glyph unicode="&#xae;" horiz-adv-x="1210" d="M84 958q0 213 148.5 360.5t365.5 147.5q106 0 200.5 -40t162.5 -107.5t107.5 -162t39.5 -198.5q0 -210 -148 -357.5t-362 -147.5q-141 0 -259.5 67.5t-186.5 184t-68 253.5zM170 958q0 -175 123 -299t305 -124q185 0 305.5 123.5t120.5 299.5t-123 301t-303 125 t-304 -125t-124 -301zM410 670v596h223q93 0 143.5 -45t50.5 -127q0 -43 -27.5 -88.5t-78.5 -67.5l123 -268h-115l-106 250h-103v-250h-110zM522 997h90q101 0 101 97q0 49 -27.5 72.5t-69.5 23.5h-94v-193z" />
<glyph unicode="&#xaf;" horiz-adv-x="1083" d="M184 1202v160h709v-160h-709z" />
<glyph unicode="&#xb0;" horiz-adv-x="737" d="M84 1102q0 117 86.5 204t204.5 87q120 0 204.5 -86.5t84.5 -204.5q0 -122 -84 -205.5t-205 -83.5q-130 0 -210.5 81t-80.5 208zM207 1100q0 -71 48 -119.5t118 -48.5t120 49t50 119q0 72 -50.5 122t-119.5 50q-70 0 -118 -50t-48 -122z" />
<glyph unicode="&#xb1;" horiz-adv-x="1175" d="M190 0v135h818v-135h-818zM190 557v145h334v316h152v-316h332v-145h-332v-319h-152v319h-334z" />
<glyph unicode="&#xb2;" horiz-adv-x="774" d="M37 1462q145 99 311 99q141 0 221 -62.5t80 -179.5q0 -61 -30 -124.5t-87.5 -127t-105 -107t-119.5 -102.5h377v-133h-637v115q98 73 188 154t160 170.5t70 144.5q0 106 -143 106q-107 0 -222 -65z" />
<glyph unicode="&#xb3;" horiz-adv-x="770" d="M41 778l49 123q137 -49 234 -49q92 0 140 32t48 85q3 142 -268 145v115q119 6 175 42.5t56 84.5q0 36 -29 57t-88 21q-102 0 -243 -64l-47 115q150 84 297 84q149 0 218.5 -57t69.5 -142q0 -50 -37 -102.5t-110 -77.5q93 -19 139.5 -78.5t46.5 -136.5q0 -110 -95.5 -185 t-252.5 -75q-76 0 -159.5 15.5t-143.5 47.5z" />
<glyph unicode="&#xb4;" horiz-adv-x="1038" d="M389 1178l279 340l137 -140l-328 -286z" />
<glyph unicode="&#xb5;" horiz-adv-x="1093" d="M109 -426v1432h229v-654q0 -92 41 -142t137 -50q113 0 236 108v738h229v-1006h-223q0 80 -2 96l-8 6q-79 -68 -148 -92t-143 -24q-59 0 -107 20l-10 -8v-424h-231z" />
<glyph unicode="&#xb6;" horiz-adv-x="1150" d="M86 1024q0 170 111.5 288t283.5 118h488v-1842h-158v1686h-133l2 -1686h-162l2 1047h-39q-171 0 -283 109.5t-112 279.5z" />
<glyph unicode="&#xb7;" horiz-adv-x="475" d="M106 573q0 58 36.5 93.5t97.5 35.5t98 -36t37 -93q0 -55 -38 -92t-97 -37t-96.5 37.5t-37.5 91.5z" />
<glyph unicode="&#xb8;" horiz-adv-x="946" d="M334 -424q231 23 231 117q0 27 -17 43.5t-51.5 23t-58.5 8t-67 1.5l-31 47q14 17 99.5 128t105.5 134l71 -43q-60 -75 -120 -160q102 -6 160.5 -48.5t58.5 -117.5q0 -97 -97 -158t-284 -61v86z" />
<glyph unicode="&#xb9;" horiz-adv-x="759" d="M82 1477l246 71h153v-821h-180v662l-197 -25z" />
<glyph unicode="&#xba;" horiz-adv-x="770" d="M51 879q0 70 19.5 130.5t58.5 109.5t105.5 77.5t154.5 28.5t153.5 -28t102.5 -78t54.5 -109.5t17.5 -130.5q0 -70 -18.5 -129t-56.5 -108t-106 -77t-159 -28q-87 0 -151.5 27t-102 75t-55 107.5t-17.5 132.5zM233 877q0 -46 6 -80.5t22 -66t48 -48t80 -16.5 q148 0 148 213q0 40 -6 75t-21.5 69t-46 53.5t-74.5 19.5q-45 0 -77 -19.5t-48.5 -52.5t-23.5 -69t-7 -78z" />
<glyph unicode="&#xbb;" horiz-adv-x="948" d="M96 78l209 315l-209 320l92 67l320 -346v-80l-318 -344zM438 78l207 315l-207 320l92 67l320 -346v-80l-320 -344z" />
<glyph unicode="&#xbd;" horiz-adv-x="1761" d="M139 1292l246 72h156v-821h-181v661l-196 -24zM432 -43l625 1485h143l-620 -1485h-148zM985 735q146 99 309 99q142 0 222.5 -62.5t80.5 -179.5q0 -49 -23 -103.5t-55.5 -99t-83.5 -96.5t-89 -85.5t-91 -76.5q64 0 190.5 -1t188.5 -1v-131h-639v115q160 121 289 254.5 t129 212.5q0 106 -143 106q-106 0 -221 -63z" />
<glyph unicode="&#xbf;" horiz-adv-x="958" d="M90 -160q0 172 162 310q77 65 113.5 98.5t78.5 80t58 85.5t16 82q0 17 -2 36t-6 46.5t-6 44.5q15 1 89.5 7.5t96.5 6.5q21 -108 21 -170q0 -57 -15.5 -105.5t-53 -98t-72.5 -86t-101 -97.5q-70 -57 -100.5 -100.5t-30.5 -104.5q0 -74 53.5 -110.5t145.5 -36.5 q151 0 317 53q4 -15 13.5 -46.5t21 -67.5t14.5 -46q-195 -74 -397 -74q-194 0 -303.5 79.5t-112.5 213.5zM438 893q0 53 36 89t93 36q60 0 96.5 -35.5t36.5 -89.5q0 -52 -36.5 -87.5t-94.5 -35.5q-59 0 -95 35.5t-36 87.5z" />
<glyph unicode="&#xc0;" horiz-adv-x="1271" d="M18 0q90 271 250.5 749t220.5 656h302l460 -1405h-245q-4 13 -45.5 144.5t-61.5 199.5h-534l-107 -344h-240zM326 1778l137 137l278 -336l-90 -86zM420 512h428q-21 77 -64 219.5t-57 190.5q-81 279 -88 309h-8q-23 -81 -44.5 -155t-30 -104.5t-15.5 -53.5z" />
<glyph unicode="&#xc1;" horiz-adv-x="1271" d="M18 0q90 271 250.5 749t220.5 656h302l460 -1405h-245q-4 13 -45.5 144.5t-61.5 199.5h-534l-107 -344h-240zM420 512h428q-21 77 -64 219.5t-57 190.5q-81 279 -88 309h-8q-23 -81 -44.5 -155t-30 -104.5t-15.5 -53.5zM563 1573l277 338l139 -135l-328 -285 q-15 13 -44 40.5t-44 41.5z" />
<glyph unicode="&#xc2;" horiz-adv-x="1271" d="M18 0q90 271 250.5 749t220.5 656h302l460 -1405h-245q-4 13 -45.5 144.5t-61.5 199.5h-534l-107 -344h-240zM254 1559l311 290h146l315 -288l-61 -72l-328 184q-132 -74 -326 -186zM420 512h428q-21 77 -64 219.5t-57 190.5q-81 279 -88 309h-8q-23 -81 -44.5 -155 t-30 -104.5t-15.5 -53.5z" />
<glyph unicode="&#xc3;" horiz-adv-x="1271" d="M18 0q90 271 250.5 749t220.5 656h302l460 -1405h-245q-4 13 -45.5 144.5t-61.5 199.5h-534l-107 -344h-240zM283 1612q31 83 81 126.5t113 43.5q55 0 169 -39t155 -39l117 82l69 -55q-27 -83 -77 -129t-115 -46q-71 0 -181.5 40t-144.5 40l-115 -80zM420 512h428 q-21 77 -64 219.5t-57 190.5q-81 279 -88 309h-8q-23 -81 -44.5 -155t-30 -104.5t-15.5 -53.5z" />
<glyph unicode="&#xc4;" horiz-adv-x="1271" d="M18 0q90 271 250.5 749t220.5 656h302l460 -1405h-245q-4 13 -45.5 144.5t-61.5 199.5h-534l-107 -344h-240zM313 1593q0 46 32.5 77.5t82.5 31.5q57 0 90 -29.5t33 -79.5q0 -47 -33 -77.5t-88 -30.5q-54 0 -85.5 30.5t-31.5 77.5zM420 512h428q-21 77 -64 219.5 t-57 190.5q-81 279 -88 309h-8q-23 -81 -44.5 -155t-30 -104.5t-15.5 -53.5zM723 1593q0 47 31.5 78t81.5 31q57 0 89.5 -29.5t32.5 -79.5q0 -47 -33 -77.5t-89 -30.5q-51 0 -82 30.5t-31 77.5z" />
<glyph unicode="&#xc5;" horiz-adv-x="1271" d="M18 0q90 271 250.5 749t220.5 656h302l460 -1405h-245q-4 13 -45.5 144.5t-61.5 199.5h-534l-107 -344h-240zM399 1669q0 93 70.5 162.5t169.5 69.5q98 0 164.5 -68.5t66.5 -163.5q0 -97 -67 -163t-164 -66q-100 0 -170 67t-70 162zM420 512h428q-21 77 -64 219.5 t-57 190.5q-81 279 -88 309h-8q-23 -81 -44.5 -155t-30 -104.5t-15.5 -53.5zM514 1663q0 -51 34 -86t91 -35q53 0 86 35t33 86q0 55 -33 92t-86 37q-55 0 -90 -37t-35 -92z" />
<glyph unicode="&#xc6;" horiz-adv-x="2031" d="M18 0l875 1403h1003v-168h-628v-418h524v-164h-524v-483h657v-170h-895v393h-516q-80 -131 -244 -393h-252zM612 563h418v664h-12q-38 -64 -240 -393z" />
<glyph unicode="&#xc7;" horiz-adv-x="1241" d="M113 694q0 68 8.5 136t30 142t54 139t83 124.5t114.5 102t152.5 67.5t192.5 25q116 0 220.5 -30.5t176.5 -82.5l-86 -164q-133 94 -314 94q-185 0 -284 -147.5t-99 -407.5q0 -90 9 -162.5t34 -142.5t66 -117t109.5 -75.5t160.5 -28.5q171 0 355 94l69 -166 q-67 -46 -175.5 -74.5t-213.5 -35.5q-25 -29 -88 -119q102 -6 160.5 -48.5t58.5 -117.5q0 -97 -97 -158t-284 -61v86q232 23 232 117q0 18 -8 31.5t-25.5 21.5t-32.5 13t-43 6.5t-42 2t-44 0.5l-31 47l138 179q-150 7 -258.5 60t-173.5 148t-95 218.5t-30 283.5z" />
<glyph unicode="&#xc8;" horiz-adv-x="1198" d="M156 0v1405h911v-172h-672v-412h566v-164h-566v-483h703v-174h-942zM371 1778l135 137l278 -336l-90 -86z" />
<glyph unicode="&#xc9;" horiz-adv-x="1198" d="M156 0v1405h911v-172h-672v-412h566v-164h-566v-483h703v-174h-942zM541 1575l276 338l139 -135l-329 -285z" />
<glyph unicode="&#xca;" horiz-adv-x="1198" d="M156 0v1405h911v-172h-672v-412h566v-164h-566v-483h703v-174h-942zM240 1565l311 293h145l316 -289l-62 -72l-327 184l-326 -186z" />
<glyph unicode="&#xcb;" horiz-adv-x="1198" d="M156 0v1405h911v-172h-672v-412h566v-164h-566v-483h703v-174h-942zM299 1593q0 46 32.5 77.5t82.5 31.5q57 0 90 -29.5t33 -79.5q0 -47 -33 -77.5t-88 -30.5q-54 0 -85.5 30.5t-31.5 77.5zM709 1593q0 47 31 78t81 31q57 0 90 -29.5t33 -79.5q0 -47 -33.5 -77.5 t-89.5 -30.5q-51 0 -81.5 30.5t-30.5 77.5z" />
<glyph unicode="&#xcc;" horiz-adv-x="585" d="M-2 1780l137 137l279 -338l-90 -84zM174 0v1405h236v-1405h-236z" />
<glyph unicode="&#xcd;" horiz-adv-x="585" d="M174 0v1405h236v-1405h-236zM203 1579l276 338l139 -135l-327 -285z" />
<glyph unicode="&#xce;" horiz-adv-x="585" d="M-94 1567l311 293h148l313 -289l-62 -72l-327 184l-324 -186zM174 0v1405h236v-1405h-236z" />
<glyph unicode="&#xcf;" horiz-adv-x="585" d="M-25 1602q0 47 31.5 77.5t83.5 30.5q56 0 88.5 -30t32.5 -78t-32 -78.5t-87 -30.5q-54 0 -85.5 30.5t-31.5 78.5zM174 0v1405h236v-1405h-236zM385 1602q0 46 31 77t80 31q57 0 89.5 -30t32.5 -78t-32.5 -78.5t-89.5 -30.5q-51 0 -81 30.5t-30 78.5z" />
<glyph unicode="&#xd0;" horiz-adv-x="1363" d="M29 668v129h125v608h446q117 0 214 -25.5t167.5 -72t123 -110t84 -142.5t47 -165t15.5 -183q0 -117 -23.5 -220t-75.5 -193t-128 -155t-188 -102t-250 -37h-432v668h-125zM395 174h168q34 0 68 4t79 17.5t84 35.5t79 62t68 92.5t45.5 132t17.5 176.5q0 99 -16.5 180 t-43 135.5t-64.5 96.5t-76 65.5t-82.5 38t-80 19t-72.5 4.5h-174v-436h293v-129h-293v-494z" />
<glyph unicode="&#xd1;" horiz-adv-x="1458" d="M156 0v1403h239q169 -260 473 -737l191 -306h12v1043h229v-1403h-235l-510 801q-12 19 -81.5 132t-80.5 132q-2 0 -5 -1t-5 -1v-1063h-227zM373 1618q31 83 81 126.5t113 43.5q55 0 169 -39t155 -39l117 82l69 -55q-26 -82 -76 -128t-116 -46q-71 0 -181.5 39.5 t-144.5 39.5l-115 -79z" />
<glyph unicode="&#xd2;" horiz-adv-x="1478" d="M115 694q0 122 21.5 229t70 200.5t121 160t179.5 105t241 38.5t240.5 -38.5t176 -105t115 -160t65 -198t19.5 -225.5q0 -155 -39.5 -285.5t-115 -227t-193.5 -151t-268 -54.5q-165 0 -287.5 50t-197.5 145t-111.5 223.5t-36.5 293.5zM365 692q0 -267 90.5 -400.5 t292.5 -133.5q124 0 207.5 72.5t120 190t36.5 273.5q0 561 -364 561q-383 0 -383 -563zM446 1784l136 137l278 -336l-90 -86z" />
<glyph unicode="&#xd3;" horiz-adv-x="1478" d="M115 694q0 122 21.5 229t70 200.5t121 160t179.5 105t241 38.5t240.5 -38.5t176 -105t115 -160t65 -198t19.5 -225.5q0 -155 -39.5 -285.5t-115 -227t-193.5 -151t-268 -54.5q-165 0 -287.5 50t-197.5 145t-111.5 223.5t-36.5 293.5zM365 692q0 -267 90.5 -400.5 t292.5 -133.5q124 0 207.5 72.5t120 190t36.5 273.5q0 561 -364 561q-383 0 -383 -563zM643 1581l277 338l139 -135l-330 -285z" />
<glyph unicode="&#xd4;" horiz-adv-x="1478" d="M115 694q0 122 21.5 229t70 200.5t121 160t179.5 105t241 38.5t240.5 -38.5t176 -105t115 -160t65 -198t19.5 -225.5q0 -155 -39.5 -285.5t-115 -227t-193.5 -151t-268 -54.5q-165 0 -287.5 50t-197.5 145t-111.5 223.5t-36.5 293.5zM365 692q0 -267 90.5 -400.5 t292.5 -133.5q124 0 207.5 72.5t120 190t36.5 273.5q0 561 -364 561q-383 0 -383 -563zM369 1565l311 293h147l314 -289l-62 -72l-327 184l-324 -186z" />
<glyph unicode="&#xd5;" horiz-adv-x="1478" d="M115 694q0 122 21.5 229t70 200.5t121 160t179.5 105t241 38.5t240.5 -38.5t176 -105t115 -160t65 -198t19.5 -225.5q0 -155 -39.5 -285.5t-115 -227t-193.5 -151t-268 -54.5q-165 0 -287.5 50t-197.5 145t-111.5 223.5t-36.5 293.5zM365 692q0 -267 90.5 -400.5 t292.5 -133.5q124 0 207.5 72.5t120 190t36.5 273.5q0 561 -364 561q-383 0 -383 -563zM399 1626q29 83 79.5 126.5t115.5 43.5q54 0 168.5 -39t155.5 -39l114 82l72 -55q-28 -83 -78 -128.5t-115 -45.5q-72 0 -181.5 40t-143.5 40l-117 -80z" />
<glyph unicode="&#xd6;" horiz-adv-x="1478" d="M115 694q0 122 21.5 229t70 200.5t121 160t179.5 105t241 38.5t240.5 -38.5t176 -105t115 -160t65 -198t19.5 -225.5q0 -155 -39.5 -285.5t-115 -227t-193.5 -151t-268 -54.5q-165 0 -287.5 50t-197.5 145t-111.5 223.5t-36.5 293.5zM365 692q0 -267 90.5 -400.5 t292.5 -133.5q124 0 207.5 72.5t120 190t36.5 273.5q0 561 -364 561q-383 0 -383 -563zM422 1620q0 46 32.5 77.5t82.5 31.5q56 0 89 -30.5t33 -78.5t-32.5 -78.5t-87.5 -30.5q-54 0 -85.5 30.5t-31.5 78.5zM831 1620q0 47 31.5 78t81.5 31q56 0 89.5 -30.5t33.5 -78.5 t-33.5 -78.5t-89.5 -30.5q-52 0 -82.5 30.5t-30.5 78.5z" />
<glyph unicode="&#xd7;" horiz-adv-x="1183" d="M229 336l267 264l-263 262l103 103l262 -263l256 259l107 -107l-256 -258l260 -258l-105 -105l-258 261l-266 -265z" />
<glyph unicode="&#xd8;" horiz-adv-x="1445" d="M96 -14l150 190q-148 181 -148 518q0 122 21.5 229t70 200.5t121 160t179.5 105t241 38.5q249 0 399 -131l105 136h121l-160 -199q152 -194 152 -533q0 -155 -39.5 -285.5t-115.5 -227t-194 -151t-268 -54.5q-266 0 -424 133l-100 -129h-111zM348 692q0 -209 58 -325 l585 763q-90 125 -260 125q-383 0 -383 -563zM446 276q90 -118 285 -118q93 0 163.5 41t113.5 114.5t64.5 169.5t21.5 211q0 219 -62 346z" />
<glyph unicode="&#xd9;" horiz-adv-x="1406" d="M141 510v895h236v-901q0 -173 85 -259.5t245 -86.5q156 0 240.5 85.5t84.5 260.5l-2 901h236l-2 -895q0 -250 -140 -389t-422 -139q-561 0 -561 528zM424 1784l137 137l279 -336l-90 -86z" />
<glyph unicode="&#xda;" horiz-adv-x="1406" d="M141 510v895h236v-901q0 -173 85 -259.5t245 -86.5q156 0 240.5 85.5t84.5 260.5l-2 901h236l-2 -895q0 -250 -140 -389t-422 -139q-561 0 -561 528zM590 1581l276 338l140 -135l-330 -285z" />
<glyph unicode="&#xdb;" horiz-adv-x="1406" d="M141 510v895h236v-901q0 -173 85 -259.5t245 -86.5q156 0 240.5 85.5t84.5 260.5l-2 901h236l-2 -895q0 -250 -140 -389t-422 -139q-561 0 -561 528zM301 1569l324 286h151l326 -284l-64 -70l-340 180l-338 -182z" />
<glyph unicode="&#xdc;" horiz-adv-x="1406" d="M141 510v895h236v-901q0 -173 85 -259.5t245 -86.5q156 0 240.5 85.5t84.5 260.5l-2 901h236l-2 -895q0 -250 -140 -389t-422 -139q-561 0 -561 528zM385 1608q0 47 31.5 77.5t83.5 30.5q56 0 88.5 -30t32.5 -78t-32 -78.5t-87 -30.5q-54 0 -85.5 30.5t-31.5 78.5z M795 1608q0 46 30.5 77t79.5 31q57 0 90 -30t33 -78t-33 -78.5t-90 -30.5q-51 0 -80.5 30.5t-29.5 78.5z" />
<glyph unicode="&#xdd;" horiz-adv-x="1189" d="M18 1405h248q14 -31 92 -184t93 -183l133 -282h10l145 295l185 354h243q-209 -387 -452 -827v-578h-252v555zM496 1548l276 338l139 -135l-329 -285z" />
<glyph unicode="&#xde;" horiz-adv-x="1179" d="M156 0v1405h237v-283h258q217 0 339 -110.5t122 -309.5q0 -59 -13.5 -116.5t-46.5 -115t-81.5 -101t-125 -70.5t-171.5 -27h-281v-272h-237zM393 442h240q101 0 168 60t67 194q0 126 -67.5 189t-177.5 63h-230v-506z" />
<glyph unicode="&#xdf;" horiz-adv-x="1271" d="M49 776v137h141v205q0 43 11 88.5t40.5 97.5t75.5 92t123.5 66.5t175.5 26.5q88 0 158.5 -19.5t113 -49t71 -68t39 -73.5t10.5 -69q0 -56 -21.5 -106t-52 -85.5t-61.5 -67t-52.5 -62t-21.5 -58.5q0 -31 22.5 -63.5t58.5 -62.5t79 -63.5t86.5 -73.5t79.5 -84.5 t58.5 -104.5t22.5 -127q-3 -123 -97 -202t-273 -79q-153 0 -293 45l43 160q137 -45 231 -45q73 0 116.5 34t43.5 91q0 28 -8 54.5t-17.5 45t-29.5 41t-33.5 34.5t-39.5 35t-38 34q-4 4 -30 27.5t-32.5 30t-29.5 28.5t-31 31.5t-26.5 30.5t-25.5 33.5t-19.5 32.5t-17.5 36 t-9 35t-4 38q0 44 21.5 86t52 75t60.5 64t51.5 65t21.5 67q0 18 -6.5 37.5t-23.5 45t-56.5 42t-96.5 16.5q-98 0 -145 -61t-47 -158v-1102h-228v776h-141z" />
<glyph unicode="&#xe0;" horiz-adv-x="1052" d="M70 268q0 144 98 224.5t258 89.5q45 3 144.5 8t144.5 8v47q0 109 -42.5 157t-158.5 48q-153 0 -317 -53q-10 41 -41 145q87 38 198.5 60t212.5 22q179 0 273 -80t94 -262v-682h-203l-10 104q-2 2 -4 2q-148 -122 -344 -122q-69 0 -123.5 18.5t-87.5 47t-54.5 67.5 t-29.5 75.5t-8 75.5zM281 1374l143 148l278 -336l-92 -94zM311 289q0 -78 39 -116t123 -38q117 0 242 109v219l-232 -17q-172 -12 -172 -157z" />
<glyph unicode="&#xe1;" horiz-adv-x="1052" d="M70 268q0 144 98 224.5t258 89.5q45 3 144.5 8t144.5 8v47q0 109 -42.5 157t-158.5 48q-153 0 -317 -53q-10 41 -41 145q87 38 198.5 60t212.5 22q179 0 273 -80t94 -262v-682h-203l-10 104q-2 2 -4 2q-148 -122 -344 -122q-69 0 -123.5 18.5t-87.5 47t-54.5 67.5 t-29.5 75.5t-8 75.5zM311 289q0 -78 39 -116t123 -38q117 0 242 109v219l-232 -17q-172 -12 -172 -157zM442 1178l279 340l137 -140l-328 -286z" />
<glyph unicode="&#xe2;" horiz-adv-x="1052" d="M70 268q0 144 98 224.5t258 89.5q45 3 144.5 8t144.5 8v47q0 109 -42.5 157t-158.5 48q-153 0 -317 -53q-10 41 -41 145q87 38 198.5 60t212.5 22q179 0 273 -80t94 -262v-682h-203l-10 104q-2 2 -4 2q-148 -122 -344 -122q-69 0 -123.5 18.5t-87.5 47t-54.5 67.5 t-29.5 75.5t-8 75.5zM168 1155l311 305h148l315 -301l-63 -72l-328 193l-326 -195zM311 289q0 -78 39 -116t123 -38q117 0 242 109v219l-232 -17q-172 -12 -172 -157z" />
<glyph unicode="&#xe3;" horiz-adv-x="1052" d="M70 268q0 144 98 224.5t258 89.5q45 3 144.5 8t144.5 8v47q0 109 -42.5 157t-158.5 48q-153 0 -317 -53q-10 41 -41 145q87 38 198.5 60t212.5 22q179 0 273 -80t94 -262v-682h-203l-10 104q-2 2 -4 2q-148 -122 -344 -122q-69 0 -123.5 18.5t-87.5 47t-54.5 67.5 t-29.5 75.5t-8 75.5zM197 1223q29 83 79 127.5t115 44.5q54 0 168.5 -40t155.5 -40l114 84l72 -58q-28 -82 -77.5 -128t-114.5 -46q-72 0 -182 40t-144 40l-117 -80zM311 289q0 -78 39 -116t123 -38q117 0 242 109v219l-232 -17q-172 -12 -172 -157z" />
<glyph unicode="&#xe4;" horiz-adv-x="1052" d="M70 268q0 144 98 224.5t258 89.5q45 3 144.5 8t144.5 8v47q0 109 -42.5 157t-158.5 48q-153 0 -317 -53q-10 41 -41 145q87 38 198.5 60t212.5 22q179 0 273 -80t94 -262v-682h-203l-10 104q-2 2 -4 2q-148 -122 -344 -122q-69 0 -123.5 18.5t-87.5 47t-54.5 67.5 t-29.5 75.5t-8 75.5zM225 1255q0 47 32.5 78t84.5 31q56 0 88.5 -30.5t32.5 -78.5q0 -47 -32.5 -77.5t-88.5 -30.5q-53 0 -85 30.5t-32 77.5zM311 289q0 -78 39 -116t123 -38q117 0 242 109v219l-232 -17q-172 -12 -172 -157zM635 1255q0 46 32 77.5t81 31.5 q57 0 89.5 -30.5t32.5 -78.5q0 -47 -32.5 -77.5t-89.5 -30.5q-51 0 -82 30.5t-31 77.5z" />
<glyph unicode="&#xe5;" horiz-adv-x="1052" d="M70 268q0 144 98 224.5t258 89.5q45 3 144.5 8t144.5 8v47q0 109 -42.5 157t-158.5 48q-153 0 -317 -53q-10 41 -41 145q87 38 198.5 60t212.5 22q179 0 273 -80t94 -262v-682h-203l-10 104q-2 2 -4 2q-148 -122 -344 -122q-69 0 -123.5 18.5t-87.5 47t-54.5 67.5 t-29.5 75.5t-8 75.5zM311 289q0 -78 39 -116t123 -38q117 0 242 109v219l-232 -17q-172 -12 -172 -157zM324 1356q0 93 70 161t169 68t165.5 -67t66.5 -162q0 -97 -67.5 -164.5t-164.5 -67.5q-99 0 -169 68t-70 164zM438 1350q0 -51 34 -87t91 -36q53 0 86 36t33 87 q0 54 -33 90.5t-86 36.5q-55 0 -90 -36t-35 -91z" />
<glyph unicode="&#xe6;" horiz-adv-x="1662" d="M63 270q0 60 21.5 114.5t64.5 99t115 71t164 27.5h293v63q0 112 -50.5 156.5t-168.5 44.5q-167 0 -318 -53l-43 147q86 37 193.5 59.5t204.5 22.5q104 0 190.5 -36t124.5 -116q117 156 324 156q80 0 144.5 -19.5t107 -49.5t74 -74.5t48 -86.5t26.5 -93t12.5 -86.5 t2.5 -75.5v-82h-647q0 -303 262 -303q147 0 312 65q3 -9 14.5 -41t21 -59.5t13.5 -40.5q-170 -94 -389 -94q-140 0 -227 37t-142 112q-67 -52 -133.5 -85.5t-126 -46.5t-95.5 -17t-79 -4q-72 0 -129 19.5t-91 49t-56 69.5t-30 76.5t-8 73.5zM303 299q0 -164 166 -164 q54 0 140 30.5t143 80.5q-30 81 -33 213h-184q-232 0 -232 -160zM950 584h434q0 63 -9 110t-31 85.5t-63 58.5t-101 20q-206 0 -230 -274z" />
<glyph unicode="&#xe7;" horiz-adv-x="966" d="M88 492q0 71 11.5 139t44.5 141.5t84 128t137.5 90t197.5 35.5q192 0 326 -90l-80 -158q-119 68 -238 68q-124 0 -184.5 -91.5t-60.5 -260.5q0 -73 10.5 -129.5t36 -104.5t73.5 -74t117 -26q68 0 132 15.5t155 64.5l63 -154q-146 -98 -342 -104q-27 -33 -77 -107 q102 -6 160.5 -48.5t58.5 -117.5q0 -97 -97 -158t-284 -61v86q231 23 231 117q0 27 -17 43.5t-51.5 23t-58.5 8t-67 1.5l-31 47l131 170q-137 15 -223.5 83.5t-122 172.5t-35.5 250z" />
<glyph unicode="&#xe8;" horiz-adv-x="1073" d="M90 500q0 67 10.5 132t42 138.5t81 128t135 91t196.5 36.5q86 0 155 -19.5t113 -49t76.5 -74.5t49 -85.5t25.5 -93t11 -86t2 -75.5v-92h-663q-3 -293 268 -293q151 0 321 67l50 -143q-171 -96 -400 -96q-111 0 -195 27t-136 73t-84.5 113.5t-45 139.5t-12.5 161z M276 1374q32 36 144 148l278 -336l-94 -94zM326 594h448q0 133 -48 205.5t-163 72.5q-214 0 -237 -278z" />
<glyph unicode="&#xe9;" horiz-adv-x="1073" d="M90 500q0 67 10.5 132t42 138.5t81 128t135 91t196.5 36.5q86 0 155 -19.5t113 -49t76.5 -74.5t49 -85.5t25.5 -93t11 -86t2 -75.5v-92h-663q-3 -293 268 -293q151 0 321 67l50 -143q-171 -96 -400 -96q-111 0 -195 27t-136 73t-84.5 113.5t-45 139.5t-12.5 161zM326 594 h448q0 133 -48 205.5t-163 72.5q-214 0 -237 -278zM436 1178l277 340l137 -140l-326 -286z" />
<glyph unicode="&#xea;" horiz-adv-x="1073" d="M90 500q0 67 10.5 132t42 138.5t81 128t135 91t196.5 36.5q86 0 155 -19.5t113 -49t76.5 -74.5t49 -85.5t25.5 -93t11 -86t2 -75.5v-92h-663q-3 -293 268 -293q151 0 321 67l50 -143q-171 -96 -400 -96q-111 0 -195 27t-136 73t-84.5 113.5t-45 139.5t-12.5 161z M184 1155l312 305h147l315 -301l-63 -72l-328 193l-325 -195zM326 594h448q0 133 -48 205.5t-163 72.5q-214 0 -237 -278z" />
<glyph unicode="&#xeb;" horiz-adv-x="1073" d="M90 500q0 67 10.5 132t42 138.5t81 128t135 91t196.5 36.5q86 0 155 -19.5t113 -49t76.5 -74.5t49 -85.5t25.5 -93t11 -86t2 -75.5v-92h-663q-3 -293 268 -293q151 0 321 67l50 -143q-171 -96 -400 -96q-111 0 -195 27t-136 73t-84.5 113.5t-45 139.5t-12.5 161z M246 1255q0 46 32 77.5t82 31.5q56 0 88.5 -30.5t32.5 -78.5q0 -47 -32.5 -77.5t-86.5 -30.5t-85 30.5t-31 77.5zM326 594h448q0 133 -48 205.5t-163 72.5q-214 0 -237 -278zM655 1255q0 47 31.5 78t81.5 31q56 0 89.5 -30.5t33.5 -78.5q0 -47 -33.5 -77.5t-89.5 -30.5 q-53 0 -83 30.5t-30 77.5z" />
<glyph unicode="&#xec;" horiz-adv-x="565" d="M-10 1374l143 148l279 -336l-93 -94zM166 0v1001h229v-1001h-229z" />
<glyph unicode="&#xed;" horiz-adv-x="565" d="M166 0v1001h229v-1001h-229zM193 1178l276 340l137 -140l-325 -286z" />
<glyph unicode="&#xee;" horiz-adv-x="583" d="M-96 1155l311 305h147l316 -301l-64 -72l-327 193l-326 -195zM178 0v1001h230v-1001h-230z" />
<glyph unicode="&#xef;" horiz-adv-x="565" d="M-41 1257q0 46 32.5 77.5t82.5 31.5q56 0 88.5 -30.5t32.5 -78.5q0 -47 -32.5 -77.5t-86.5 -30.5t-85.5 30.5t-31.5 77.5zM166 0v1001h229v-1001h-229zM369 1257q0 47 31 78t81 31q56 0 89.5 -30.5t33.5 -78.5q0 -47 -33.5 -77.5t-89.5 -30.5q-52 0 -82 30.5t-30 77.5z " />
<glyph unicode="&#xf0;" horiz-adv-x="1116" d="M84 446q0 95 30 181.5t85.5 155t142 109t190.5 40.5q136 0 238 -55q-52 162 -152 280l-184 -125l-53 76l172 115q-80 82 -199 157l66 119q146 -66 276 -180l181 123l55 -76l-166 -109q282 -288 264 -725q-1 -78 -14.5 -149.5t-48 -146.5t-87 -129.5t-139.5 -89.5 t-198 -35q-106 0 -188.5 28.5t-132 74t-82 108.5t-44.5 124.5t-12 128.5zM311 455q0 -310 244 -310q60 0 107 25t74 62.5t44 89t23 98t6 94.5q0 66 -21 188q-106 70 -229 70q-54 0 -97 -19t-71 -50.5t-46.5 -73.5t-26 -85t-7.5 -89z" />
<glyph unicode="&#xf1;" horiz-adv-x="1107" d="M109 0v1001h221l4 -88l6 -4q84 54 181 85.5t171 31.5q78 0 134.5 -19.5t88.5 -49t50.5 -76t24 -89.5t5.5 -100v-692h-229v641q0 40 -3 68t-12 55.5t-26 43.5t-46.5 26t-70.5 10q-115 0 -268 -88v-756h-231zM178 1243q31 83 81.5 127.5t113.5 44.5q55 0 169 -40t154 -40 l117 84l70 -57q-27 -81 -77.5 -127.5t-115.5 -46.5q-71 0 -181 40t-144 40l-115 -80z" />
<glyph unicode="&#xf2;" horiz-adv-x="1130" d="M90 498q0 85 16.5 160.5t53 143t91.5 116.5t137 77.5t183 28.5q103 0 184.5 -28.5t134 -77t87 -116.5t49 -142.5t14.5 -159.5q0 -84 -15 -157t-50.5 -140.5t-90 -115.5t-138.5 -76.5t-191 -28.5q-127 0 -219.5 40.5t-145 113t-76.5 162.5t-24 200zM285 1374 q40 45 143 148l279 -336l-95 -94zM328 498q0 -62 5 -109t21 -94t42 -77.5t70.5 -49t104.5 -18.5q69 0 117 29t72 81t33.5 109t9.5 129q0 358 -232 358q-56 0 -99.5 -21t-70.5 -55t-43.5 -82t-23 -96.5t-6.5 -103.5z" />
<glyph unicode="&#xf3;" horiz-adv-x="1130" d="M90 498q0 85 16.5 160.5t53 143t91.5 116.5t137 77.5t183 28.5q103 0 184.5 -28.5t134 -77t87 -116.5t49 -142.5t14.5 -159.5q0 -84 -15 -157t-50.5 -140.5t-90 -115.5t-138.5 -76.5t-191 -28.5q-127 0 -219.5 40.5t-145 113t-76.5 162.5t-24 200zM328 498q0 -62 5 -109 t21 -94t42 -77.5t70.5 -49t104.5 -18.5q69 0 117 29t72 81t33.5 109t9.5 129q0 358 -232 358q-56 0 -99.5 -21t-70.5 -55t-43.5 -82t-23 -96.5t-6.5 -103.5zM481 1178l279 340l137 -140l-328 -286z" />
<glyph unicode="&#xf4;" horiz-adv-x="1130" d="M90 498q0 85 16.5 160.5t53 143t91.5 116.5t137 77.5t183 28.5q103 0 184.5 -28.5t134 -77t87 -116.5t49 -142.5t14.5 -159.5q0 -84 -15 -157t-50.5 -140.5t-90 -115.5t-138.5 -76.5t-191 -28.5q-127 0 -219.5 40.5t-145 113t-76.5 162.5t-24 200zM190 1155l312 305h147 l316 -301l-64 -72l-328 193l-325 -195zM328 498q0 -62 5 -109t21 -94t42 -77.5t70.5 -49t104.5 -18.5q69 0 117 29t72 81t33.5 109t9.5 129q0 358 -232 358q-56 0 -99.5 -21t-70.5 -55t-43.5 -82t-23 -96.5t-6.5 -103.5z" />
<glyph unicode="&#xf5;" horiz-adv-x="1130" d="M90 498q0 85 16.5 160.5t53 143t91.5 116.5t137 77.5t183 28.5q103 0 184.5 -28.5t134 -77t87 -116.5t49 -142.5t14.5 -159.5q0 -84 -15 -157t-50.5 -140.5t-90 -115.5t-138.5 -76.5t-191 -28.5q-127 0 -219.5 40.5t-145 113t-76.5 162.5t-24 200zM219 1217 q31 83 81.5 127.5t113.5 44.5q56 0 169 -40t154 -40l117 84l70 -58q-27 -81 -77.5 -127.5t-115.5 -46.5q-71 0 -181 40t-144 40l-115 -80zM328 498q0 -62 5 -109t21 -94t42 -77.5t70.5 -49t104.5 -18.5q69 0 117 29t72 81t33.5 109t9.5 129q0 358 -232 358q-56 0 -99.5 -21 t-70.5 -55t-43.5 -82t-23 -96.5t-6.5 -103.5z" />
<glyph unicode="&#xf6;" horiz-adv-x="1130" d="M90 498q0 85 16.5 160.5t53 143t91.5 116.5t137 77.5t183 28.5q103 0 184.5 -28.5t134 -77t87 -116.5t49 -142.5t14.5 -159.5q0 -84 -15 -157t-50.5 -140.5t-90 -115.5t-138.5 -76.5t-191 -28.5q-127 0 -219.5 40.5t-145 113t-76.5 162.5t-24 200zM252 1255 q0 46 32.5 77.5t82.5 31.5q56 0 88 -30.5t32 -78.5q0 -47 -32 -77.5t-86 -30.5t-85.5 30.5t-31.5 77.5zM328 498q0 -62 5 -109t21 -94t42 -77.5t70.5 -49t104.5 -18.5q69 0 117 29t72 81t33.5 109t9.5 129q0 358 -232 358q-56 0 -99.5 -21t-70.5 -55t-43.5 -82t-23 -96.5 t-6.5 -103.5zM662 1255q0 47 31 78t81 31q56 0 89.5 -30.5t33.5 -78.5q0 -47 -33.5 -77.5t-89.5 -30.5q-52 0 -82 30.5t-30 77.5z" />
<glyph unicode="&#xf7;" horiz-adv-x="1175" d="M174 543v145h827v-145h-827zM469 276q0 50 34.5 83.5t84.5 33.5q51 0 85 -33t34 -84q0 -49 -34.5 -83.5t-82.5 -34.5q-49 0 -85 35.5t-36 82.5zM469 954q0 49 34.5 83t84.5 34q51 0 85 -33.5t34 -83.5t-34.5 -85t-82.5 -35q-50 0 -85.5 35.5t-35.5 84.5z" />
<glyph unicode="&#xf8;" horiz-adv-x="1101" d="M72 -14l114 135q-110 129 -110 377q0 85 16.5 160.5t53 143t91.5 116.5t137 77.5t183 28.5q184 0 301 -96q2 2 20.5 24.5t35 43.5t20.5 26h94l-117 -141q115 -140 115 -381q0 -84 -15 -157t-50.5 -140t-90 -115t-138.5 -76t-191 -28q-188 0 -301 86l-68 -84h-100z M313 502q0 -135 33 -205q21 28 186.5 239t186.5 240q-55 78 -162 78q-70 0 -120 -30t-76 -82.5t-37 -111t-11 -128.5zM379 219q59 -69 178 -69q56 0 98 20t67 52t40 79t20.5 93.5t5.5 103.5q0 131 -36 207q-25 -34 -192.5 -251.5t-180.5 -234.5z" />
<glyph unicode="&#xf9;" horiz-adv-x="1087" d="M109 307v694h229v-641q0 -50 5 -82.5t20.5 -62t48 -43.5t82.5 -14q54 0 123 28t128 82v733q39 0 115.5 1.5t114.5 1.5v-1004h-217q-1 8 -3 55t-3 56l-7 4q-85 -76 -175.5 -107t-161.5 -31q-78 0 -134.5 19t-87.5 48t-49 75t-23 88t-5 100zM274 1374q32 36 144 148 l278 -336l-94 -94z" />
<glyph unicode="&#xfa;" horiz-adv-x="1087" d="M109 307v694h229v-641q0 -50 5 -82.5t20.5 -62t48 -43.5t82.5 -14q54 0 123 28t128 82v733q39 0 115.5 1.5t114.5 1.5v-1004h-217q-1 8 -3 55t-3 56l-7 4q-85 -76 -175.5 -107t-161.5 -31q-78 0 -134.5 19t-87.5 48t-49 75t-23 88t-5 100zM444 1178l277 340l137 -140 l-326 -286z" />
<glyph unicode="&#xfb;" horiz-adv-x="1087" d="M109 307v694h229v-641q0 -50 5 -82.5t20.5 -62t48 -43.5t82.5 -14q54 0 123 28t128 82v733q39 0 115.5 1.5t114.5 1.5v-1004h-217q-1 8 -3 55t-3 56l-7 4q-85 -76 -175.5 -107t-161.5 -31q-78 0 -134.5 19t-87.5 48t-49 75t-23 88t-5 100zM158 1155l311 305h145l316 -301 l-62 -72l-327 193l-326 -195z" />
<glyph unicode="&#xfc;" horiz-adv-x="1087" d="M109 307v694h229v-641q0 -50 5 -82.5t20.5 -62t48 -43.5t82.5 -14q54 0 123 28t128 82v733q39 0 115.5 1.5t114.5 1.5v-1004h-217q-1 8 -3 55t-3 56l-7 4q-85 -76 -175.5 -107t-161.5 -31q-78 0 -134.5 19t-87.5 48t-49 75t-23 88t-5 100zM229 1257q0 47 32.5 78t84.5 31 q56 0 88.5 -30.5t32.5 -78.5q0 -47 -32.5 -77.5t-88.5 -30.5q-53 0 -85 30.5t-32 77.5zM639 1257q0 46 32 77.5t81 31.5q57 0 89.5 -30.5t32.5 -78.5q0 -47 -32.5 -77.5t-89.5 -30.5q-51 0 -82 30.5t-31 77.5z" />
<glyph unicode="&#xfd;" horiz-adv-x="995" d="M-4 -406q5 30 16 85l15 75q117 -24 170 -24q44 0 69 7.5t48.5 37.5t39 67.5t45.5 120.5q-74 199 -209 571.5t-170 469.5h242l238 -775h12q125 426 231 775h230q-53 -156 -188.5 -557t-209.5 -617q-29 -85 -64.5 -140t-80 -84t-91 -39.5t-110.5 -10.5q-101 0 -233 38z M401 1178l279 340l137 -140l-328 -286z" />
<glyph unicode="&#xfe;" horiz-adv-x="1122" d="M109 -426v1831h223v-500q1 0 2.5 -1t3.5 -1q63 53 145 83t158 30q87 0 155 -26.5t111.5 -71.5t71.5 -110t39.5 -137t11.5 -157q0 -119 -23 -213.5t-71.5 -168t-131 -113t-194.5 -39.5q-60 0 -137 17t-133 48q0 -78 -1 -235t-1 -236h-229zM340 213q36 -25 102 -44t125 -19 q48 0 87 18t72.5 58t52 115t18.5 179q0 93 -16.5 158.5t-47.5 101t-70 51t-90 15.5q-52 0 -124.5 -28.5t-108.5 -61.5v-543z" />
<glyph unicode="&#xff;" horiz-adv-x="995" d="M-4 -406q5 30 16 85l15 75q117 -24 170 -24q44 0 69 7.5t48.5 37.5t39 67.5t45.5 120.5q-74 199 -209 571.5t-170 469.5h242l238 -775h12q125 426 231 775h230q-53 -156 -188.5 -557t-209.5 -617q-29 -85 -64.5 -140t-80 -84t-91 -39.5t-110.5 -10.5q-101 0 -233 38z M186 1255q0 47 32.5 78t84.5 31q56 0 88.5 -30.5t32.5 -78.5q0 -47 -32.5 -77.5t-88.5 -30.5q-53 0 -85 30.5t-32 77.5zM596 1255q0 46 32 77.5t81 31.5q57 0 89.5 -30.5t32.5 -78.5q0 -47 -32.5 -77.5t-89.5 -30.5q-51 0 -82 30.5t-31 77.5z" />
<glyph unicode="&#x152;" horiz-adv-x="1742" d="M94 694q0 122 21.5 229t70 200.5t121 160t179.5 105t241 38.5q115 0 203 -24h719v-168h-637v-418h532v-164h-532v-485h665v-168h-788q-82 -16 -162 -16q-165 0 -287.5 50t-197.5 144.5t-111.5 222.5t-36.5 293zM344 692q0 -268 91 -402t292 -134q29 0 45 2v1093 q-6 0 -24 1t-25 1q-87 -1 -154.5 -33t-109 -83.5t-68.5 -125.5t-37 -151t-10 -168z" />
<glyph unicode="&#x153;" horiz-adv-x="1748" d="M74 496q0 106 28 198.5t83.5 167.5t150.5 118.5t219 43.5q235 0 350 -180q111 184 357 184q80 0 145 -19t107.5 -49.5t74.5 -74t49 -85.5t27.5 -92.5t13 -86t2.5 -74.5v-92h-659q0 -297 270 -297q152 0 314 67l49 -141q-176 -96 -391 -96q-254 0 -361 166 q-120 -172 -362 -172q-100 0 -179.5 26.5t-133 73t-88.5 112.5t-50.5 140.5t-15.5 161.5zM313 498q0 -60 5.5 -107.5t21 -94t41.5 -77.5t70 -50t104 -19q233 0 233 348q0 358 -233 358q-70 0 -119.5 -31t-75 -85t-36.5 -113t-11 -129zM1026 590h442q0 133 -47.5 205.5 t-158.5 72.5q-59 0 -103.5 -22.5t-71.5 -62.5t-41.5 -88t-19.5 -105z" />
<glyph unicode="&#x178;" horiz-adv-x="1189" d="M18 1405h248q14 -31 92 -184t93 -183l133 -282h10l145 295l185 354h243q-209 -387 -452 -827v-578h-252v555zM266 1591q0 46 32.5 77.5t82.5 31.5q57 0 90 -29.5t33 -79.5q0 -47 -33 -77.5t-88 -30.5q-54 0 -85.5 30.5t-31.5 77.5zM676 1591q0 47 31 78t81 31 q57 0 90 -29.5t33 -79.5q0 -47 -33.5 -77.5t-89.5 -30.5q-51 0 -81.5 30.5t-30.5 77.5z" />
<glyph unicode="&#x2c6;" horiz-adv-x="1083" d="M156 1155l311 305h147l316 -301l-64 -72l-327 193l-326 -195z" />
<glyph unicode="&#x2dc;" horiz-adv-x="1083" d="M197 1217q29 83 79 127.5t115 44.5q54 0 168.5 -40t155.5 -40l114 84l72 -58q-28 -82 -77.5 -128t-114.5 -46q-72 0 -182 40t-144 40l-117 -80z" />
<glyph unicode="&#x2000;" horiz-adv-x="960" />
<glyph unicode="&#x2001;" horiz-adv-x="1921" />
<glyph unicode="&#x2002;" horiz-adv-x="960" />
<glyph unicode="&#x2003;" horiz-adv-x="1921" />
<glyph unicode="&#x2004;" horiz-adv-x="640" />
<glyph unicode="&#x2005;" horiz-adv-x="480" />
<glyph unicode="&#x2006;" horiz-adv-x="320" />
<glyph unicode="&#x2007;" horiz-adv-x="320" />
<glyph unicode="&#x2008;" horiz-adv-x="240" />
<glyph unicode="&#x2009;" horiz-adv-x="384" />
<glyph unicode="&#x200a;" horiz-adv-x="106" />
<glyph unicode="&#x2010;" horiz-adv-x="776" d="M115 459v172h547v-172h-547z" />
<glyph unicode="&#x2011;" horiz-adv-x="776" d="M115 459v172h547v-172h-547z" />
<glyph unicode="&#x2012;" horiz-adv-x="776" d="M115 459v172h547v-172h-547z" />
<glyph unicode="&#x2013;" horiz-adv-x="1024" d="M72 451v149h882v-149h-882z" />
<glyph unicode="&#x2014;" horiz-adv-x="2048" d="M86 451v149h1870v-149h-1870z" />
<glyph unicode="&#x2018;" horiz-adv-x="483" d="M104 1118q0 98 69.5 202t166.5 155q17 -17 55 -74q-94 -87 -102 -195q88 -22 88 -116q0 -51 -37.5 -88t-93.5 -37q-68 0 -107 43t-39 110z" />
<glyph unicode="&#x2019;" horiz-adv-x="483" d="M106 1038q92 85 103 193q-42 10 -65 41t-23 76q0 52 38.5 89.5t94.5 37.5q68 0 105.5 -43.5t37.5 -110.5q0 -99 -68 -202t-167 -154z" />
<glyph unicode="&#x201a;" horiz-adv-x="483" d="M88 -209q93 90 102 203q-43 9 -66.5 40t-23.5 77q0 52 38.5 89.5t97.5 37.5q68 0 106.5 -44t38.5 -110q0 -101 -69 -208t-169 -157z" />
<glyph unicode="&#x201c;" horiz-adv-x="784" d="M100 1118q0 99 68 201.5t168 155.5q38 -57 55 -74q-97 -90 -102 -195q42 -11 65 -41t23 -75q0 -51 -39 -88t-96 -37q-67 0 -104.5 43t-37.5 110zM418 1118q0 98 69 202t166 155q4 -5 27 -35.5t31 -38.5q-99 -89 -107 -195q90 -21 90 -116q0 -50 -38.5 -87.5t-94.5 -37.5 q-68 0 -105.5 43t-37.5 110z" />
<glyph unicode="&#x201d;" horiz-adv-x="784" d="M102 1038q94 84 105 193q-88 21 -88 117q0 52 37 89.5t94 37.5q68 0 106.5 -43.5t38.5 -110.5q0 -98 -68.5 -201.5t-168.5 -154.5zM422 1038q94 88 100 193q-41 10 -63.5 41t-22.5 76q0 52 38 89.5t95 37.5q67 0 105.5 -43.5t38.5 -110.5q0 -99 -68.5 -202t-169.5 -154z " />
<glyph unicode="&#x201e;" horiz-adv-x="802" d="M88 -209q93 90 102 203q-43 9 -66.5 40t-23.5 77q0 52 38.5 89.5t97.5 37.5q68 0 106.5 -44t38.5 -110q0 -101 -69 -208t-169 -157zM418 -209q92 86 104 203q-43 9 -66.5 40t-23.5 77q0 52 38 89.5t97 37.5q68 0 107 -44t39 -110q0 -101 -68.5 -208t-169.5 -157z" />
<glyph unicode="&#x2022;" horiz-adv-x="729" d="M123 557q0 101 71 172.5t171 71.5q97 0 168 -71.5t71 -172.5q0 -98 -71 -171t-168 -73q-99 0 -170.5 72.5t-71.5 171.5z" />
<glyph unicode="&#x2026;" horiz-adv-x="1351" d="M100 111q0 54 36.5 89.5t96.5 35.5t97 -35.5t37 -89.5q0 -55 -36.5 -92t-94.5 -37q-60 0 -98 37t-38 92zM539 111q0 54 35.5 89.5t95.5 35.5t96.5 -35.5t36.5 -89.5q0 -55 -36.5 -92t-94.5 -37q-60 0 -96.5 37t-36.5 92zM987 111q0 53 37 89t96 36q60 0 96.5 -35.5 t36.5 -89.5q0 -55 -37 -92t-96 -37q-60 0 -96.5 37t-36.5 92z" />
<glyph unicode="&#x202f;" horiz-adv-x="384" />
<glyph unicode="&#x2039;" horiz-adv-x="677" d="M119 354v80l319 346l94 -67l-210 -320l208 -315l-92 -68z" />
<glyph unicode="&#x203a;" horiz-adv-x="677" d="M119 713l94 67l319 -346v-80l-319 -344l-92 68l207 315z" />
<glyph unicode="&#x205f;" horiz-adv-x="480" />
<glyph unicode="&#x20ac;" d="M57 541v116h86v33q0 53 2 82h-88v115h105q14 85 41.5 159.5t75.5 145.5t113 121t158.5 80.5t207.5 31.5q184 0 346 -57l-35 -176q-136 45 -285 45q-158 0 -256 -90t-131 -260h535v-115h-549q-2 -25 -2 -76v-39h551v-116h-543q23 -181 116.5 -276t285.5 -95q53 0 142 12 t171 35l37 -168q-75 -30 -186.5 -48.5t-206.5 -18.5q-148 0 -258 40t-179.5 116t-107.5 175t-51 228h-95z" />
<glyph unicode="&#x2122;" horiz-adv-x="1576" d="M61 1296v107h601v-107h-230v-577h-145v577h-226zM731 719v684h168q17 -48 170 -461q6 -9 16.5 -29t12.5 -24l196 514h164v-684h-141v409q-48 -108 -168 -411h-115q-51 135 -157 401h-9v-399h-137z" />
<glyph unicode="&#x25fc;" horiz-adv-x="1003" d="M0 0v1004h1004v-1004h-1004z" />
</font>
</defs>
</svg>
